/* XPM */
static char *acf87d818c80410ed1be16c1fa6d0ce8D4GaLV1byKxdpTTw[] = {
/* columns rows colors chars-per-pixel */
"64 64 242 2 ",
"   c #010106",
".  c #02040C",
"X  c #04090E",
"o  c #0B080D",
"O  c #180F0A",
"+  c #020513",
"@  c #060616",
"#  c #020B14",
"$  c #0B0B14",
"%  c #030C1B",
"&  c #0B0D1A",
"*  c #120D15",
"=  c #120E1A",
"-  c #04121B",
";  c #081218",
":  c #0B141C",
">  c #121114",
",  c #13121C",
"<  c #1A141C",
"1  c #1C191A",
"2  c #210F0C",
"3  c #251819",
"4  c #28211C",
"5  c #010C22",
"6  c #030B25",
"7  c #021323",
"8  c #0B1422",
"9  c #0B1A23",
"0  c #03142C",
"q  c #051A2A",
"w  c #141422",
"e  c #121A24",
"r  c #1B1B25",
"t  c #191927",
"y  c #131C2A",
"u  c #061A35",
"i  c #1A1D31",
"p  c #231C25",
"a  c #241D28",
"s  c #07202C",
"d  c #0D232D",
"f  c #12232C",
"g  c #1A232A",
"h  c #0D2333",
"j  c #0B263A",
"k  c #132632",
"l  c #192535",
"z  c #142A34",
"x  c #1D2C34",
"c  c #152C3A",
"v  c #1A2D39",
"b  c #17313B",
"n  c #1B323C",
"m  c #292327",
"M  c #25222C",
"N  c #35292A",
"B  c #282935",
"V  c #362E35",
"C  c #26343D",
"Z  c #373338",
"A  c #3D333A",
"S  c #422C24",
"D  c #47342B",
"F  c #55392A",
"G  c #473937",
"H  c #453A3B",
"J  c #553E36",
"K  c #58433A",
"L  c #6A4D3E",
"P  c #082945",
"I  c #142D46",
"U  c #0D364F",
"Y  c #163546",
"T  c #1B3543",
"R  c #173844",
"E  c #1C3946",
"W  c #143549",
"Q  c #193649",
"!  c #14394D",
"~  c #1B3B4C",
"^  c #163B54",
"/  c #1E3D51",
"(  c #273645",
")  c #2F3447",
"_  c #233A45",
"`  c #223E4D",
"'  c #2B3D4C",
"]  c #373A46",
"[  c #213F51",
"{  c #443C43",
"}  c #4A3F45",
"|  c #1D4457",
" . c #22404E",
".. c #2C444B",
"X. c #37434C",
"o. c #254353",
"O. c #2A4655",
"+. c #2A4957",
"@. c #274859",
"#. c #2B4B5B",
"$. c #334553",
"%. c #374A57",
"&. c #2F515E",
"*. c #36525D",
"=. c #1B4667",
"-. c #1A4B71",
";. c #254C64",
":. c #354C64",
">. c #2C5263",
",. c #2C556B",
"<. c #325261",
"1. c #395868",
"2. c #214D70",
"3. c #28577C",
"4. c #375D74",
"5. c #2E607F",
"6. c #39657B",
"7. c #494449",
"8. c #524444",
"9. c #584B4A",
"0. c #484B56",
"q. c #544E54",
"w. c #5A4E52",
"e. c #4A525B",
"r. c #5C5253",
"t. c #595559",
"y. c #674C43",
"u. c #67544A",
"i. c #745849",
"p. c #675958",
"a. c #765D53",
"s. c #72635A",
"d. c #7A6459",
"f. c #485A66",
"g. c #595A63",
"h. c #405D70",
"j. c #635C62",
"k. c #45616D",
"l. c #55656C",
"z. c #486778",
"x. c #586A75",
"c. c #4F717F",
"v. c #55727C",
"b. c #696568",
"n. c #736564",
"m. c #786966",
"M. c #756A6C",
"N. c #7B6D6D",
"B. c #7B706D",
"V. c #746D72",
"C. c #6B767C",
"Z. c #7C7374",
"A. c #797578",
"S. c #80614C",
"D. c #836A5A",
"F. c #846E67",
"G. c #877469",
"H. c #977B6B",
"J. c #867978",
"K. c #937973",
"L. c #908274",
"P. c #9A8576",
"I. c #A58B79",
"U. c #A99079",
"Y. c #2E5C82",
"T. c #396A87",
"R. c #3D708F",
"E. c #3972A0",
"W. c #486D85",
"Q. c #46738A",
"!. c #587788",
"~. c #4B7A96",
"^. c #557B95",
"/. c #697C85",
"(. c #787C86",
"). c #487EA5",
"_. c #877D84",
"`. c #4D8196",
"'. c #57869C",
"]. c #6F818B",
"[. c #73848B",
"{. c #7A8488",
"}. c #688898",
"|. c #7A8C95",
" X c #79929A",
".X c #588AA5",
"XX c #5A90B1",
"oX c #6594A9",
"OX c #6A90AC",
"+X c #7597A9",
"@X c #6897B5",
"#X c #6B9CB5",
"$X c #6FA1B8",
"%X c #76A3B8",
"&X c #6EA3CC",
"*X c #77A6C8",
"=X c #76ACD2",
"-X c #8A8386",
";X c #948A87",
":X c #918C90",
">X c #86969D",
",X c #9B9496",
"<X c #A99587",
"1X c #AD948C",
"2X c #B59A8A",
"3X c #A39B97",
"4X c #B9A28E",
"5X c #AAA39B",
"6X c #BAA798",
"7X c #8597A1",
"8X c #8C9DA4",
"9X c #9A9EA5",
"0X c #A29FA5",
"qX c #93A5AC",
"wX c #8DA7B1",
"eX c #99ABB3",
"rX c #ABA5A2",
"tX c #B2AAA5",
"yX c #B8ABA5",
"uX c #B5AFAF",
"iX c #A4B5BC",
"pX c #C1AB9A",
"aX c #C7B4A9",
"sX c #E2C8B3",
"dX c #83ABC0",
"fX c #8AB8CC",
"gX c #87B6D7",
"hX c #ABBCC3",
"jX c #B8BDC5",
"kX c #8ABDE4",
"lX c #91BFE6",
"zX c #C3BBC0",
"xX c #B4C7CF",
"cX c #8DC4ED",
"vX c #96C5E8",
"bX c #97CBF3",
"nX c #9DD1F7",
"mX c #B2D6EE",
"MX c #A5D5F7",
"NX c #ACDBFB",
"BX c #AEE0FC",
"VX c #CFC8CC",
/* pixels */
"~ ~ ~ ~ ~ ~ ~ ~ (.,XtXtXtXtX5X3X,X-Xm.n.p.p.9.H G V a w = & % + + + + ) (.|.7X8Xv.%.O.O.O.+.+.#.#.#.#.#.#.#.#.&.&.&.<.<.<.<.<.<.",
"~ ~ ~ ~ ~ ~ ~ ` {.rXtXyXtX5X3X3X:XJ.m.n.p.u.9.H H V a w = & % @ + + + X.[.[.qX8X/.k.O.O.O.+.+.#.#.#.#.#.#.#.#.&.&.&.<.<.<.<.<.<.",
"~ ~ ~ ! ~ ~ ~ ' -XrXtXtXtX5X3X,X;X-XN.n.p.r.9.H H Z p w & $ @ @ + + + f.[./.8X8X[.f.O.o.+.#.#.#.#.#.#.#.#.#.#.#.&.&.&.<.<.<.<.<.",
"~ ~ ~ ~ ~ ~ ~ _ ,XrXtXyX5X3X3X,X,X-XZ.n.p.r.w.H 9.Z p w , w w & @ @ & ] >X].8X>X Xx.%.O.O.#.#.#.#.#.#.#.#.#.#.#.#.&.&.&.<.<.<.<.",
"~ ~ ~ ~ ~ ^ ~ ' -XtX3XtXrX5X0X3X,X:XV.V.w.w.r.H 9.A p t t w & + + + & 0.>X7XiX>X/.l.%.@.+.O.#.#.#.#.#.#.#.#.#.#.#.&.&.&.<.<.<.<.",
"~ ~ ~ ~ ~ ~ ~ ' A.3X5XuXrX0X9X9X0X:Xb.M.w.8.r.H H { p t , @ + + + + + t 8XeXhXqX[.|.$.' o.+.#.#.#.#.#.#.#.#.#.#.#.&.&.&.>.<.<.<.",
"~ ~ ~ ~ ~ ~ ~ ' V.5X5XuXA.7.] ) M ] g.t.9.} p.H G 7.p & @ @ + + + + + + x.hXeXqX/.l.$.% v /.#.#.#.#.#.#.#.#.#.#.#.&.&.&.>.<.<.<.",
"Q ~ ~ ~ ~ ~ ~ E -X5XrXb.q.7.0.e.] ) ] { H A M.H N { w $ @ @ + + + + + + l eXeXqXxXl.# y f.7 #.#.#.#.#.#.#.#.#.#.#.#.&.&.&.&.<.<.",
"Q ~ ~ ~ Q ~ ~ ` {.5X3Xb.V.-Xb.g.p.r.r.{ A V Z.{ 3 V , @ @ @ + @ @ + . + 8 f.>XxXiXf.# y ) + O.#.#.#.#.#.#.#.#.#.#.#.&.&.&.&.<.<.",
"Q ~ ~ ~ ~ ~ ~ ` l.yXJ.Z.rXA.j.t.9.r.p.r.w.7.Z.{ < M = $ $ $ t t & & & % % x hX>XqXl.( + y + O.#.#.#.#.#.#.#.#.#.#.#.&.&.&.&.<.<.",
"Q Q Q Q Q ~ E ' 0.tXL.3X-XZ.M.t.{ H 8.9.9.p.M.w.< = & $ V w i i & @ @ y y X.8X8XeX>Xe.+ & + O.+.O.#.#.#.#.#.#.#.#.#.&.&.&.&.&.<.",
"Q Q Q Q Q Q ;X;XK ;XL.-X-XM.w.A m m B 7.8.p.N.p.p , @ b.@ M ] & + + B % y e [.iXhX|.] + + @ O.+.O.#.#.#.#.#.#.#.#.#.#.&.&.&.&.&.",
"Q Q ~ ~ Q Q F F.;X;XtXp.J.Z M.e.t $ $ , V 9.VXM.A , B M @ , w . + + @ 8 : - /.xXxXiX+ + + 7 O.+.O.#.#.#.#.#.#.#.#.#.#.&.&.&.&.&.",
"Q Q ~ ~ Q Q J 1XG.;XL.p.8.n.p 0.+ . + $ * A G r.V < B @ . + @ + + + @ & 9 - l.xXxXxXt . + 9 O.O.O.#.#.#.#.#.#.#.#.#.#.&.&.&.&.&.",
"Q ~ ~ Q Q Q G.I.H.J.P.s.K 3 q.B . . = $ Z m Z N.{ < t g.. . + + + + w e x 7 X.>XxXjXe.. + ( O.o.O.@.@.#.#.#.#.#.#.#.#.#.&.&.&.&.",
"Q Q ~ ~ Q ~ 7.i.sX<X<XK.p.B.b.7.Z a < w V G K.N.H < $ @ . . + + + + + e g y C C.iXqXX.+ + ..O.O.O.O.O.+.+.#.#.#.#.#.#.#.#.&.&.&.",
"Q Q Q ~ Q ~ ` K.2XH.<XP.P.I.G.s.H m 3 N G m.<XF.H < = , . . . + + + + % & 8 ' l.eX8XB + @ ..O.O.o.O.O.O.O.#.+.#.#.#.#.#.#.#.#.&.",
"Q Q ~ ~ Q Q E M.P.S.<XI.L.D.L J D D H D m.K.1XG.H 1 < $ . . . + + + + # & # %.|.eX8X9 + C $.o.O.o.o.O.O.O.+.#.#.#.#.#.#.#.#.#.#.",
"Q Q ~ ~ Q Q E ] I.L <X<XH.i.i.u.9.8.J J a.<X1XL.} a p = @ . . . . . + @ & % v  X>XqXl l + $.o.o.o.o.o.O.O.O.+.+.#.#.#.#.#.#.#.#.",
"Q Q ~ ~ ~ Q ~ _ aXL U.4XP.a.i.y.L y.J F.D.2X6X<X8.a m p w = , = $ $ & : : % C >X[.8X9 ' - O.o.o.o.o.o.O.O.O.+.+.+.+.+.#.#.#.#.#.",
"Q Q Q Q Q Q Q Y zXi.<X4X<XH.D.i.y.L K K 4XpXpX3X9.N p B Z $ $ , > > * * : & C [.[.7X( x.l.o.o.o.o.o.o.o.o.o.o.O.+.+.+.#.#.#.#.#.",
"Q Q Q ~ Q Q Q Q :XH.U.6XaX2XH.D.y.y.a.u.K.2XyXK.w.A p V a $ o $ $ , > * : w ] /./.eXf._ h.o.o.o.o.o.o.o.o.o.o.O.+.+.+.#.#.#.#.#.",
"Y Y Q Q Q Q Q E %.pXU.pXaX2XP.d.a.a.J S 1X2XyX;Xw.V p V M t $ . o * 1 p , w B x.|.eXd  XO.o.o.o.o.o.o.O.o.o.o.o.O.+.+.+.+.+.#.#.",
"Y Y Y R E Y Y Y _ <XU.6X6XI.D.a.y.D 3 S aX6X<X3X} p p M m ] $ . . . 1 Z e e B f.[.eXs 1.o.o.o.o.o.o.o.o.o.o.o.o.O.+.+.+.+.+.#.#.",
"Y Y Y Y Y E Q E E L.I.<X<XH.D.u.S 2 3 G m.a.p.p.N 3 M $ $ . . .     o Z ] w e %.[.eXT o.o.o.o.o.o.o.o.o.o.o.o.o.O.O.O.+.+.+.#.#.",
"Q Y Y Y Y Y Y Y E X.<XP.P.G.i.J 3 O m 8.F.a.8.9.V p * . . . .       . : X.t ; X./.wXo.o.o.o.o.o.o.o.o.o.o.o.o.o.O.O.O.+.+.+.#.#.",
"Y Q Y Y Y Y Y Y Y E -XG.D.i.9.N O 3 8.N.J.F.m.9.N 3 $ .     .         X g e.; X.l.7Xo.o.o.o.o.o.o.o.o.o.o.o.o.o.O.O.O.O.O.O.O.+.",
"Y Y Y Y Y Y Y Y Y Y %.D.K i.K 2 O H n.-XJ.N.n.8.N 1 > o   . .       . . # 7.; X.x. XO.o.o.o.o.o.o.o.o.o.o.o.o.o.o.o.O.O.O.O.+.+.",
"Y Y Y Y Y Y Y Y Y Y R F.D d.N O N 8.N._.J.J.n.8.N p m , o . . . . . .   X 0.$ e.x.].o.o.o.o.o.o.o.o.o.o.o.o.o.o.o.o.O.O.O.O.O.O.",
"Y Y Y Y Y Y Q Y Y Y Q A.F s.N 2 m H B.J.Z.Z.j.8.{ Z p > $ . o . . . . . X 0.$ f.x.v.o.o.o.o.o.o.o.o. .o.o.o.o.o.o.o.o.o.o.O.O.O.",
"Y Y Y Y Y Y Q Y Y Y Y t.i.K D 4 3 1 m 3 { r.7.} 7.p V 1 M 1 M # . . . . $ ] : g.x.z.` ~ ~ [ [ [ o.o. . . .o.o.o.o.o.o.o.o.O.O.O.",
"Y Y Y Y Y Q Q Q Y Y R ( d.S u.4 N Z N o zXVXVX:XzXj.,Xq.0.Z V X . . . . : Z , g.l.O. .` / / / [ [ [ ` ` ` `  .o.o.o.o.o.o.o.O.O.",
"Y Y Y Y Y Q W Q Q Y Y E J.K u.G K A M.8.V.jXVXuXuX(.:Xt.7.w $ . $ . . . g C e f.l.o.[ ` ~ [ [ [ [ [ [ [ ` `  .o.o.o.o.o.o.o.o.O.",
"Y Y Y Y Y Q W Q W W Q Q ] u.y.u.J G M.Z.V.b.q._.A.q.{ B , * $ $ $ $ . . B g C f.:.[ / ~ ` [ [ o.[ [ [ [ ` [  .o.o.o.o.o.o.o.o.o.",
"Y Y Y Y Q Q Q W W Q Q Q Y s.u.D u.G N.Z.-X_.:X-Xg.7.q.V < , $ $ $ @ . . Z 8 $.f.o.~ ~ ~ / / [ [ [ [ ` [ ` [ `  .o.o.o.o.o.o.o.o.",
"Y Y Q Q Q Q W W W W W ,.nXxXu.y.a.9.n.Z.J.-X-XA.t.} { a = $ $ $ $ . + @ ] 9 f.*./ ~ ~ ~ / / / [ [ [ ` ` ` [ `  .o.o.o.o.o.o.o.o.",
"Y Y W W W Q W W W W Q.~.MXmXb.r.D p.s.Z.Z.Z.b.p.} V p , * $ $ $ @ . + y ( u 1.o./ ~ ~ ~ / / / [ [ o. .` ` `  . .`  .o.o.o.o.o.o.",
"Y Y W W W Q W W W W $XT.NXNXmXb.9.n.n.B.B.Z.b.w.{ a t = = $ $ o @ + % f.$.l /.[ / ~ ~ ~ ~ ~ / / / [  . .` `  . .` `  .o.o.o.o.o.",
"Y W W W W Q W W W z.oXT.NXNXNXxXt.8.B.B.N.m.b.q.A B M t = $ o o + + 8 %.x.%.!.k.~ ~ E ~ ~ ~ ~ / / [ ` ` ` `  . .` `  . .o.o.o.o.",
"W W W W W W W W ^ %XXXR.NXNXNXMX8Xr.J.m.m.N.b.r.0.g.7.Z a = @ @ + & ( %._ O.W.j o./ ~ E E ~ ~ ~ ~ / ~ ` ~ ~ `  .` ` ` ` o.o.o.o.",
"W W ! ! ! ! W ! %X%X.XT.MXNXNXNXmXC.b.G.n.Z.M.j.V.b.q.{ B $ . @ + y f.' ' $.W.j z./ ~ E E ~ ~ ~ ~ [ ` `  . .`  .` ` ` ` o.o.o.o.",
"W ! ! ! ! ^ ! +X%X#X.XR.~.NXBXNXNXmXe.A.J.Z.A.b.A.j.q.] a $ + + + ( f.( $.1.}.j Y ^./ ~ ~ ~ / ~ ~ ~ ~ ~ ~  .o.~ ~ ` ` ` o.o.o.o.",
"W W ! ^ ^ | +X%X%X#X.XR.-.NXNXNXNXMXmX}.b.b.M.V.b.q.{ B $ @ + + % %.%.' $.s dXu u !.}.[ ` / ~ ~ ~ ~ ~ ~ ~ ~ ~ ~ ~ ` ` ` ` o.o.o.",
"W U ^ 6.'.oX#X$X$X#XoXT.Y.kXNXNXMXMXnXvX+Xt.q.q.7.] B w @ . + + l e.l ' ( <.fXu u [ +X}.:.| ~ ~ ~ ~ ~ ~ ~ ~ ~  .~  .` ` `  . .o.",
"W.'.~.W.'.'..X#X$X@XXXT.3.=.NXMXMXMXnXbXvX!.X.B p M , $ @ + + y ( %.8 l % }.fXu 0 j +X+X!.4.#.~ ~ ~ ~ ~ ~ ~ ~  .~ ~ ~ ~  .[ `  .",
"~.Q.R.Q.'.'..X#X#X@X.XR.3.^ bXMXMXMXbXbXcXkX+X~ q 8 w t t & + B y ) @ % Q OXfXu 0 h 1.wX!.!.1.c.c.o.~ ~ ~ ~ /  .~ ~ ~ ~  .[ ` ` ",
"~.T.T..X`.`..X@X#X@X.XR.3.-.T.MXnXnXnXbXcXcXkX=XW.I B B t + % y % y + 7 6.%XfXj 7 0 T  X+Xc.z.1.k.c.k.o.~ ~ / ` |  .~ ~ ` [ ` ` ",
"T.5.5.'.Q.~.'.oX@XoX.XR.3.=.P lXMXnXnXbXbXcXkX=X@XY.u i t @ @ @ + + @ ~ `.*XfXh 5 0 h k.wX}.k.1.<.1.k.z.!.4.@.o.o. .~ ~ ~ ~ ` ` ",
"T.6.~.Q.Q.~.'.oX@XoX~.T.5.=.u ~.nXnXnXbXbXcXcX=X=XXX3.0 6 + + + + % Q ;..X*XfX0 5 0 u  .}. Xz.<.k.&.&.<.1.z.z.!.z. .E ~ ~ ~  .` ",
"6.4.oXT.T.Q.'.'.'.'.~.Q.T.=.u P =XkXkXkXkXkXkX=X=XXXE.2.P @ + + 5 4.^ 4..X%XdX5 5 7 7  .k. X!.1.1.#. .....O.+.1.z.!.*.E E E E E ",
"4.,.6.`.6.6.Q.^.Q.Q.~.Q.6.| I 0 .XgXgXgXgX=X=X=X&XXX).3.^ j + % :.@.W 4.'.oX%X5 @ 5 7 _ 1.z.c.z.k.n _ _ _ n n _ $.f.z.z. .E T T ",
",.,.,.>.W.Q.W.z.6.6.z.T.>.| I 6 -.@X=X*X*X*X*X$X@XXX).T.3.j 6 8 % 0 Q 4.'.oX%X% + % % v 1.f.1.z.%.c b _ n k h z n ..%.*.f.k.T T ",
">.>.>.,.>.>.z.4.6.4.4.4.>.| P 5 u ~.@X@X#X@X@X@XXX.X.X~.,.u % + + + c 4.!.}.OX% @ % % d $.*.%.*.n z f z n d 7 q d v _ ' ' ..f.$.",
";.#.#.>.#.;.>.,.,.,.,.,.>.| j 0 6 ;.^.oXoXoX.X.X.X'.^.!.0 - % + + + f T c.!.}.% % # % 9 ..*...$._ d 9 d v d 7 7 7 d c v v v ' %.",
"/ o.o.o.o.#.#.@.@.@.>.#.#.| I u 6 u 4.^.^.^.^.^.^.~.^.u 9 % % + + + f 8 z.c.z.- % + % - C $._ n x C f 7 z k 7 - - q f f f f z _ ",
"[  . .o.~ o. .o.#.@.#.@.#.o.c q 0 5 @.W.^.^.^.^.Q.W.1.8 : v y % + . C % f k.:.% - + # - C ..C x f f x f 9 z 9 - - - 9 9 9 8 9 f ",
"~ o.` E E E E E Y o.o.+.O.` T q 0 5 7 1.W.W.W.W.W.z.# : y 9 l # . . B . + f.' % - + + # x ..n f f f f f C f 9 - - - - - - - - - ",
"E O.Y T T T E E Y E ` o. .` b q 7 7 5 Q 4.z.z.z.z.%.  . # g e % . . t . . %.k % - + . + f _ x - : 9 9 9 C 9 e - - - % # # % % - ",
"T  .T b n T b b b b E ` ` _ T h 5 7 5 q :.1.4.h.h..   . & - : & . . , . . e ; + + . . + f C x 9 - # # : B : 9 : - % # + # + # % ",
"n n T v c c c c c c n T _ E T k - 7 7 7 T :.1.1.' .     + - % & # . ; . . ; X . . . . + 9 x x f : : ; - x : 9 : - # + + # + + # ",
"c c _ n z c c z c z k b n n n z 7 % 7 7 c ~ :.:.+ . . . . + % + . . . . . # . . . . X # % # # : : - - ; x : : : - # + + + + + X ",
"c c c n z k z z h h z c n n b z 9 % % 7 h h _ h + . . + % - $ # . . . . . . . . X . . X # # # # ; # % # g - : : - # + + . . . X ",
"z z z n z f k k k h d h v n n z y % % - 7 q c h v ; + q k ; . . . . . .   $ > > > $ X X # # # % + # # # g ; : : - # + + . . . + ",
"z z z z v f f f d d d h v n n v f % # % 7 h T _ v - + c k + . . . . . > 4 m 1 > > > > > # # # # # # X X f X : : - # + + . . . . "
};
