/* XPM */
static char *_b2c6548a7224dfacb76580dea0a0443N999POfSUXRdrOBY[] = {
/* columns rows colors chars-per-pixel */
"64 64 249 2 ",
"   c #000005",
".  c #01010C",
"X  c #020214",
"o  c #03051A",
"O  c #090619",
"+  c #04091C",
"@  c #0B0B1C",
"#  c #090916",
"$  c #110D1D",
"%  c #11111D",
"&  c #030C23",
"*  c #0B0D22",
"=  c #020927",
"-  c #120F22",
";  c #0C1123",
":  c #03152B",
">  c #0B142A",
",  c #08162A",
"<  c #131323",
"1  c #141528",
"2  c #151B2C",
"3  c #1B1B2B",
"4  c #1B1625",
"5  c #071934",
"6  c #131D32",
"7  c #1B1D32",
"8  c #030F33",
"9  c #231C2B",
"0  c #261A28",
"q  c #291D2E",
"w  c #0D2438",
"e  c #142236",
"r  c #1B2335",
"t  c #12253A",
"y  c #1C2B3C",
"u  c #17283B",
"i  c #152837",
"p  c #2B232D",
"a  c #25212B",
"s  c #232333",
"d  c #222B3B",
"f  c #2A2836",
"g  c #352C34",
"h  c #362C38",
"j  c #3C333D",
"k  c #35303B",
"l  c #302B35",
"z  c #43363D",
"x  c #48393D",
"c  c #4D2B2F",
"v  c #0A2647",
"b  c #152E41",
"n  c #153344",
"m  c #1B3444",
"M  c #1A3649",
"N  c #1D3A4C",
"B  c #193748",
"V  c #0B3558",
"C  c #153A5A",
"Z  c #052A54",
"A  c #2B3544",
"S  c #213D4E",
"D  c #2C3C4B",
"F  c #263647",
"G  c #3C3541",
"H  c #363A48",
"J  c #233E51",
"K  c #283C55",
"L  c #383D51",
"P  c #232F41",
"I  c #163E66",
"U  c #041D43",
"Y  c #443B44",
"T  c #483B44",
"R  c #523F43",
"E  c #1A415A",
"W  c #23414E",
"Q  c #28414E",
"!  c #3B434E",
"~  c #264353",
"^  c #2A4655",
"/  c #2B4857",
"(  c #2D4C5A",
")  c #284158",
"_  c #334554",
"`  c #324E5C",
"'  c #384857",
"]  c #33505D",
"[  c #3C535E",
"{  c #1E4766",
"}  c #295268",
"|  c #345161",
" . c #3B5866",
".. c #2C5A77",
"X. c #28516E",
"o. c #36667C",
"O. c #376270",
"+. c #4B444C",
"@. c #4A4247",
"#. c #5C4C4C",
"$. c #554649",
"%. c #464A56",
"&. c #534D54",
"*. c #5B4E53",
"=. c #524F5E",
"-. c #48535C",
";. c #595359",
":. c #5F504F",
">. c #645353",
",. c #645B5C",
"<. c #675759",
"1. c #735E5C",
"2. c #624F4D",
"3. c #76645C",
"4. c #65615E",
"5. c #485965",
"6. c #555A66",
"7. c #515769",
"8. c #6A5E63",
"9. c #645B63",
"0. c #44636C",
"q. c #48666E",
"w. c #57636C",
"e. c #496975",
"r. c #5C6C75",
"t. c #566977",
"y. c #57737B",
"u. c #4F717A",
"i. c #696368",
"p. c #776867",
"a. c #676A76",
"s. c #756D72",
"d. c #64757C",
"f. c #6A767B",
"g. c #787679",
"h. c #7B736C",
"j. c #88665A",
"k. c #9A6C5E",
"l. c #846C66",
"z. c #88756C",
"x. c #96796A",
"c. c #8C7A73",
"v. c #867777",
"b. c #927D75",
"n. c #9D6F60",
"m. c #978479",
"M. c #82807D",
"N. c #A38677",
"B. c #245B85",
"V. c #2D628D",
"C. c #3C6C83",
"Z. c #396B88",
"A. c #3C718A",
"S. c #346D9A",
"D. c #3B7AA7",
"F. c #1C5382",
"G. c #476D85",
"H. c #417287",
"J. c #44748A",
"K. c #47798E",
"L. c #567981",
"P. c #597C86",
"I. c #467B92",
"U. c #4A7D94",
"Y. c #467997",
"T. c #4C7794",
"R. c #6A7A82",
"E. c #757C87",
"W. c #807480",
"Q. c #5E8287",
"!. c #4E8499",
"~. c #4D8196",
"^. c #53869B",
"/. c #56889B",
"(. c #68828A",
"). c #73858C",
"_. c #77848B",
"`. c #698D94",
"'. c #7C8C92",
"]. c #79969B",
"[. c #6A9093",
"{. c #588BA3",
"}. c #5E92A8",
"|. c #498BBA",
" X c #6797AB",
".X c #6B9DB1",
"XX c #699BB9",
"oX c #7297A3",
"OX c #73A4B6",
"+X c #78A8BB",
"@X c #78A1AC",
"#X c #569BC7",
"$X c #669CC7",
"%X c #64A4CE",
"&X c #79AAC4",
"*X c #6AAAD6",
"=X c #77B3DC",
"-X c #7EAFD8",
";X c #7CB9E4",
":X c #8A8485",
">X c #988986",
",X c #86969A",
"<X c #9B9597",
"1X c #8C8A91",
"2X c #A38D84",
"3X c #A7968A",
"4X c #B5998B",
"5X c #A39C9B",
"6X c #A79995",
"7X c #B49D94",
"8X c #B38E80",
"9X c #ABA198",
"0X c #B5A699",
"qX c #8B9DA1",
"wX c #939FA2",
"eX c #8AA4A8",
"rX c #95A8A9",
"tX c #98B0B3",
"yX c #AAA5A3",
"uX c #B4AAA5",
"iX c #A8B8B9",
"pX c #BAB6B1",
"aX c #A19BA1",
"sX c #C3B3A9",
"dX c #C5A991",
"fX c #85B5CA",
"gX c #8BBAD4",
"hX c #95B8D0",
"jX c #84BDE6",
"kX c #84BDE9",
"lX c #ACBDC0",
"zX c #95C6D7",
"xX c #B1C7CC",
"cX c #8BC5EB",
"vX c #87C3EA",
"bX c #93C9EE",
"nX c #98C9EE",
"mX c #9ED2E4",
"MX c #95CCF2",
"NX c #9CCDF3",
"BX c #99D1F8",
"VX c #A4D2E7",
"CX c #A3D2F7",
"ZX c #A9D8FA",
"AX c #B5DCF9",
"SX c #BAE3FD",
"DX c #B6E3FF",
"FX c #CFD3D1",
"GX c #C0E6FF",
/* pixels */
"N N N N J J J N ( t.iXuXm.>X6X<X>Xv.1.>.<.#.$.@.@.z g p p a 9 4 < @ O O O @ ; 2 -.f.d.6.5._ D / ( / / ( ( ( ( ( ( ` ] ] | | | | ",
"N N S S J S S S ' r.pXuX<X5X5X5X<Xv.i.>.<.>.$.$.$.x g p p 9 4 < @ O O O O + + ; 6._.f.R.R.5.5._ ( / / ( ( ( ( ( ( ` ] ] | | | | ",
"N N S S S S N S 5.'.pXyX5X5X5X5X>Xv.h.i.<.>.#.*.$.x g p 9 4 $ O O O X X X o o + 5.'.f._.'.d.7.D / / / / ( ( ( ( ( ( ` | | | | | ",
"N N S S N N J N 5.<XpXyXyX5X5X5X6X>Xv.p.<.;.*.*.$.x g p 9 4 % @ @ + X X o o X + %.,X).'.,X_.t._ ^ / / / ( ( ( ( ( ( ` | | | | | ",
"N N S S N N J N t.<XyXyXyX5X5X<X>X:Xv.1.<.8.<.$.@.z g p p 4 < @ O o o X X o X 2 -.).,X,XeX,Xd.[ / / / / ( ( ( ( ( ( ( ] | | | ] ",
"N N S S S S J J 6.<X9XuXyXyX5X<X>Xv.v.i.>.<.,.$.@.j j j l < $ O X O o O O o X 7 w.d.).rXrX,Xd.5.~ / / / / ( ( ( ( ( ( ` ] | | | ",
"N N N N S S S ^ E.yXyXuXuX5X<X<X<X:Xv.v.<.#.*.*.$.g Y +.p $ O O < < < @ @ + + 2 r._.f.,XqXeXR.5./ / / / / / ( ( ( ( ( ` ] | | ` ",
"N N N S S S S ~ 1XyXuXuXyX5X6X5XaX1X:Xs.s.<.T $.*.h j &.9 @ < 3 3 ; o X X X * A w.'.'.tX,XqX).w.| / / / / / / ( ( ( ( ` ] ] | ` ",
"N N N N S J N | 1X6X9X9XuX9X5XyX<X<X1Xi.p.p.x z &.z g ;.l @ 1 * o X X X . . X ; w.qXqXiXtX].(.r.q.~ / / / / / ( ( ( ` ` ` ` ` ] ",
"N N S N N S S ` _.3X6XuXpX:XR.a.7.%.%.6.&.&.x g &.z l +.g @ o X X . . . . . X X d rXiXiXiX,X,X).0.~ ` / J / / ( ( ( ( ( ( ] | ] ",
"S S S S N S N ^ f.3X0XuXg.L D D F P u r A f f l ;.z 9 k g o X X . X X X X X X X + t.xXtXtX,X).'.] / u F ].^ ( ( ( ( ( ` ] ] | | ",
"N S S S N N N ) f.3X0X:X=.-.6.6.6.,.&.=.H f s p ;.z % a 3 o X X X X X o o X X X o d eXlXtX_.iXd.y ; o 2 R.u.~ ( ( ( ( ] ` ] ] ] ",
"N N N S S N N N d.6X0Xg.g.1XE.9.*.*.#.2.:.+.Y g 8.Y X - < X X . X @ < < + o O X o > -.,X,XiXxX-.. X r P # q.^ ( ( ( ` ` ( ` ] ] ",
"N N N J J J J N 5.9X9Xg.aX<Xi.;.&.Y Y $.#.$.$.+.8.&.O X O X X @ * * 1 < o O X * ; & ! wX,XqXtX-.X d O A X A ( / ( ( ( ( ( ` ` ` ",
"N N N J J J N N ^ <X3X:X2Xh.i.i.+.j h k T T T >.<.*.4 X X . s 3 O d f < o X + @ 7 6 H E.rX,XeXd.F A   d # F ( / ( ( ( ( ( ` ` ` ",
"N N N J J N [ H b a.>Xc.b.z.;.Y G f < - 9 g j $.v.8.f @ # 4 H   O 3 # . . X 2 y + r : 6.iXtXiX).^ 2   r 1 D ( / ( ( ( ( ( ( ( ( ",
"N N N S N ' 2X3Xi.i.:X>X<.<.&.i.j $ X X X O 9 G v.9.g $ l j * . . X o .   O < ; & & + 5.iXiXFX,XP O . 3 f ` / ( / / ( ( ( ( ( ( ",
"N N N N B %.c j.uX6X>Xv.#.T &.< 1 . . o o O 9 G z <.T 4 O 2 < X . X o X . . * r 2 > o D rXxXFXiX3 . X < A ` / ( / ( ( ( ( ( ( ( ",
"N N N S B ' c j.N.x.2Xz.p.h 4 w.L . X - O 4 +.s ;.m.x q X 3 s X X X X X X X * + k r & d ).iXxXtXs # . @ A ` / / / ( ( ( ( ( ( ` ",
"N N N N S S $.j.dX2X3Xm.z.;.<.v.E.f 3 4 - 9 Y #.b.b.R q O O O X X X X X X X X X s 2 1 d w.qXiXtXG < . * ! / / / / ( ( ( ( ( ( ( ",
"N N N N S B %.j.FXFX3X2Xm.0X>X>.$.z p 0 0 q #.l.3Xb.$.0 @ O O O X . X X X X X + * @ ; A w.'.rXtX%.3 . @ ! / / / / ( ( ( ( ( ( ( ",
"N N N N S N ^ l.4XsX0X3X9X0X3Xb.3.$.z h j z 3.b.0X>X$.0 - ; O X X . . . X X X o X @ + D E._.qXrX! @ . < L / / / / ( ( ( ( ( ( ( ",
"N N N N N S B i.N.x.0X9X0X0X3X2Xz.>.$.$.h >.x.7XuX6X#.0 < 1 @ # X X X . . . X X O X + r ).'.,XrX%.  @ 3 A ( ^ / / / ( ( ( ( ( ( ",
"N N N N N S B -.N.x.9X0X0X3X4X2Xz.<.#.z T l.N.sXpXyX>.0 % < 2 < O O X X . X X O O o & 6 r.R.'.eX-.. %.f _ / / / / / ( ( ( ( ( ( ",
"N N N N N N N S 0Xk.3X0X0X3XN.x.l.1.R x l.l.7XsXpX5X>.g 4 < d y o @ O O X X X X X + + 6 7.d.).qX%.O a.l ] ^ / / / / / ( ( ( ( ( ",
"N N N N N N N B <Xk.m.0X0XyX6XN.m.p.>.3.<.b.4X7XuX:X$.g < @ s 3 X X o X X X X X X o + 6 5.r.).,X' r f.5./ / / / / / ( ( ( ( ( ( ",
"N N N N N N J n g.8Xj.4X7X6X6X6X>Xz.l.l.b.3Xj.0XuX<X$.p O * d r <   X X X o o X o o & e [ r.).qX-.w.-.e.W / / / / / / / ( ( ( ( ",
"N N N N N N N B -.7Xx.N.2Xm.c.l.l.z.>X>XuX1.p.sX3X>Xz 4 o 6 > 6 _ %   X X o ; * & + ; u _ t.).tX! f.(.^ ^ ^ ^ / / / / / / / ( ( ",
"N N N N N N N N S >X7Xm.m.c.v.v.m.3X6X6X>Xc c.c.$.#.g X > ;     ; #   . X X 2 e 6 : > e D w.(.tXA 5.q.~ / ^ ^ / / / / / / / / / ",
"N N N N N N N S n s.0Xz.m.c.b.m.>X6X6XyX<.0 #.0   % f * @         .   . X X 1 5.D > > , F t.).eX[ S ~ ^ ^ ^ ^ ^ / / / / / / / / ",
"N N N N N N N S N S <X2Xb.b.l.z.m.3X7X>Xx 0 8.T 9 +.G 3 + X     . X . . . X X ' R.y 6 , F t.).qX0.W ^ ~ ^ ^ ^ ^ / / / / / / / / ",
"N N N N N N N N S n w.7Xc.z.l.l.x.2X2Xh.p G v.v.p.i.Y 1 7 > . . X X X . . . X ; r.r.y > ' y.R.,X5.S ^ ~ ~ ^ ^ ^ ^ / / / / / / / ",
"N N N N N N N N N N N p.b.z.c.z.m.2Xm.<.0 9.v.p.1.8.+.* 7 d X X X X X X .   . + u d.' & 5.R.d.'. .W ^ ~ ~ ~ ~ ~ ^ ^ ^ ^ / / / / ",
"N N N N N N N N N N N B h.c.c.m.3X2Xl.$.j s.h.p.<.<.Y o 3 L * X X X X X . . . + 6 ' _ > 5.(.y.R.` ~ ^ ~ ~ ~ ~ ^ ^ ^ ^ ^ ^ / / / ",
"N N N N N N N N N N S n i.m.z.m.3Xb.1.*.Y g.h.p.<.,.=.1 G %.* X X + + + X .   . L [ P > [ (.d.y.^ ~ ~ ~ ~ ~ ^ ^ ^ ^ ^ ^ ^ / / / ",
"N N N N N N N N N N N B -.m.c.z.m.3.p.+.;.v.s.s.p.i.%.k k 4 . . X + : & o X .   d t.F > -.R.y.w.S ~ ~ ~ ~ ~ ^ ^ ^ ^ ^ ^ ^ / / / ",
"N B N N N N N N N N N B ^ m.m.z.3.2.z.h p.i.i.s.s.Y 1 2 s .   . + o o + X . .   @ r.' > 5.r.r.[ S ~ ~ ~ ~ ~ ~ ^ ^ ^ ^ ^ ^ / / / ",
"B B B N N N N N N N N N B h.2Xm.p.p.p.p i.*.;.9.f 1 6 > 7 X . . X X             . w.[ 5 [ r.w.^ ~ ~ ~ ~ ~ ~ ~ ^ ^ ^ ^ ^ / / / / ",
"B B B N N N N N N N N N B -.m.m.z.c.p.p =.l 9 4 s L H s 7 1 O X X . . . . . .   . 5.' e 5.t. .W ~ ~ ~ ~ ~ ~ ~ ~ ~ ~ ~ ^ ^ / ^ / ",
"N N B N N N N N N N N N B S h.m.h.z.3.h +.s ! 6.a.E.W.a.L L 7 o X o + + X . . .   -.' u t.5.^ ~ ~ ) ~ ~ ~ ~ ~ ~ ~ ~ ~ ~ ^ ^ ^ ^ ",
"N B B N N N N N B B B N B E eXz.h.p.p.Y k %.i.a.s.a.i.=.A 7 @ X X + & + X X X . . _ F D r.' ~ ~ ~ ~ ~ ~ ~ ~ ~ ~ ~ ~ ~ ~ ~ ~ ^ ^ ",
"N B B N B N N N B B B N n T.SXM.3.<.p.Y Y 9.9.;.;.+.k 4 o X X X X X X X o X X + & D e ' 5.~ ) ~ ~ ~ ~ ~ ~ ~ ~ ~ ~ ~ ~ ~ ~ ~ ~ ~ ",
"N N B B B B N B B B N n e.&XSXhXi.:.,.T &.i.i.,.+.G s ; o o X X X X . . X . o 6 _ ^ > 5.` N ~ ~ ~ ~ ~ ~ ) ~ ~ ~ ~ ~ ~ ~ ~ ~ ~ ~ ",
"B N B B B B B B B N n e.{.XXSXSXeX,.*.+.,.s.;.+.Y l < X * 3 ; X X X X . . . + 6 t.t.u 7.`.W J ~ ~ ~ J ~ J ~ ~ ~ ~ ~ ~ ~ ~ ~ ~ ~ ",
"B B B B B B B B B B N .XU.gXSXAXAX_.$.+.,.;.&.@.G f * L a.%.f < o . X o . . & e 5.5.D %.@Xu.S J J J J ~ J ~ ~ ~ ~ ~ ~ ~ ~ ~ ~ ~ ",
"B B B B B B B B N t e.+XY.gXGXAXAXVXw.&.i.&.+.&.=.H 7._.w.! H 9 O X X o X X & K ' _ ! A `.e. .S ~ J J J J J ~ ~ ~ ~ ) ) ~ ~ ~ ~ ",
"B B B B B B B N n | +XOXY.&XGXAXAXDXzX=.i.h.,.;.i.w._.E.w.%.k ; X . X X X o u -.A D %.k oX . .| N ~ J J J J J J ~ ~ ~ ~ ~ ~ ~ ~ ",
"B B B B B B N b | +X+X XZ.{.SXAXAXZXDXhX7.;.4.i.i.a.a.6.=.G 3 X . . X . . > ' ' A D -.A +X .t Q.N S J J J J J J J ~ ~ ~ ) ~ ~ ~ ",
"B B B B N B t } +XfXOX XU.V.nXSXAXAXZXZXNXoXi.8.;.;.%.H k s < X X . X . o u _ D D ! %.F zX .& e.P.S N ~ J J J J J ~ ) ) ) ~ ~ ~ ",
"B B B b b B e.OX+X+XOX XU.X.XXSXAXZXZXCXCXCXfX6.$.+.k f 3 - o X X X X X > D ! y A ! 2 e.mX .= B ].`.( S S S ~ ~ ~ ~ ~ ~ ) ~ ~ ~ ",
"n b B | G./.OX.XOX+XOX.XI.....CXZXZXZXCXNXnXMX&X%.l 3 1 ; = = = & + + ; e F L 6 d O t .XmX .& 5 0.tX[.q. ./ N S ~ ~ ~ ~ ) ~ ~ ~ ",
"( e././. X X{. XOX+XOX.XU.Z.C &XDXCXZXCXNXMXbXMX-XJ.K 5 e r r r * o + r > e A * X + O.+XmXq.o 5 S ].@XQ.e.e.q.` N S ~ ~ ~ ~ ~ ~ ",
"/.^.K.H.{././. XOXOX.X X!.Z.{ ..ZXCXCXCXNXMXMXbXcXvX*XV.6 9 s s * o ; 5 & > 2   X B /.fXVXt.o 5 t u.tX[.y.0.e.P.u.| ~ S ~ ~ ~ ~ ",
"U.J.C.U.{.~./. XOXOXOX}.Y.o.X.v $XZXCXCXNXMXNXMXcXjX=X%XV.5 < r * o + + o o . . w ...XfXVXt.X 5 : Q ].eXQ.y.q. .u.(.L.q.( W N S ",
"H.o.C./.U.^./. X.X.X.X{.I...X.v X.BXCXCXNXNXNXnXbXcX;X*X#XV.w O o X X X X . . v E I.OXfXVXq.X 5 : u q.eX].y.q.0.[ 5.u.P.P.y.0.` ",
"C.o.J.U.J.U.{. X.X.X.X!.K.A...V 8 %XZXNXNXNXNXMXbXcXjX=X%X|.V.V +   . .   + { { X.{.+XfXmX| X 5 : t ^ Q.eX`.O. .0.] ] 5.0.e.P.(.",
"H.H.}.J.K.I.}. X.X X}./.^.U...C = V.MXCXNXNXNXMXbXcXjX;X*X#XD.F.V , X + t S.B.C o.}.+XfXzXJ X : : w ( q.].oXP.[ 0.y.^ ] [ ]  .5.",
"o.H. X{.J.H.~.}. X^.^.}./.J...E 8 Z *XBXNXNXNXMXbXcXcXkX=X%X|.S.B.v 5 5 b C C { C..X&XfXzXb X = : , / e.P.`.`.u.e.e.Q / / ^ ^ _ ",
"C.C.C.I./.{.{././.~./.^.!.o.o.X.5 = S.cXNXNXMXMXbXcXcXjX;X*X#X#X..6 & X   . 6 ` K. X&XgXfXw X & : : S e.L.L.L.(.L.S F / ^ Q m m ",
"C.C.H.C.C.I.{.~.!.{.!.I.U.K.o.X.v o I %XbXNXMXMXbXcXcXjXjX=X;XJ.e > & + X o 6 P U.OX&XgX+X, o & : : m q.u.u.e.L.| m F Q ^ Q m t ",
"H.J.J.K.J.C.J.!.!.!.~.U.U.~.C.} V 8 8 D.;XMXNXMXnXcXcXcXjXvX$X5 t & > & o o e d F OX&XgX X: & & & & y 0.L.u.q.u.] N y m Q ~ m w ",
"C.H.C.A.H.K.~.I.I.I.~.!.U.I.A...V Z = I %XvXMXMXnXcXcXcXvXvXK e u F 6 & * X r [ + G.fXfX^.: 5 & & & t  .L.u. . . .` m w m / S t ",
"Z.A.Z.A.A.I.H.A.A.!.~.^.U.!.U...C V U = D.;XcXMXMXcXcXjXMXJ.> b J K ) > & X d | + 2 &XfXo.: w & + & e  .L.u. .] ^ Q 5.F w S / n ",
"H.H.J.C.C.C.C.C.Z.I.I.!.!.^.I.o.C Z Z 8 V %XjXbXbXcXcXcX-X; @ w K K M > > . r F . . /.&X{ : t & + & , ] L.u. ./ ^ F Q ( ~ i ^ S "
};
