/* XPM */
static char *_80861892c7f4ce8903c52442746e450VyM8b2OsC4S3ufu5[] = {
/* columns rows colors chars-per-pixel */
"64 64 227 2 ",
"   c #000000",
".  c #0B0403",
"X  c #0C0906",
"o  c #0C0A09",
"O  c #130505",
"+  c #130A07",
"@  c #130B0A",
"#  c #1B0C0B",
"$  c #190805",
"%  c #15110D",
"&  c #1D110E",
"*  c #161412",
"=  c #1B1511",
"-  c #1C1A14",
";  c #1D1D1B",
":  c #21120F",
">  c #241512",
",  c #241B15",
"<  c #2A1B16",
"1  c #231E1A",
"2  c #2C1D1A",
"3  c #311E1C",
"4  c #24221D",
"5  c #2C221D",
"6  c #2C2017",
"7  c #33231D",
"8  c #36291F",
"9  c #252321",
"0  c #2B2521",
"q  c #2D2A25",
"w  c #2C2C2B",
"e  c #342621",
"r  c #322A25",
"t  c #3A2B24",
"y  c #322C29",
"u  c #3E2E29",
"i  c #3A2720",
"p  c #35322D",
"a  c #3B332D",
"s  c #3A3127",
"d  c #3B3532",
"f  c #3F3A35",
"g  c #3A3835",
"h  c #402F28",
"j  c #44342D",
"k  c #49372F",
"l  c #453632",
"z  c #443B34",
"x  c #4C3C35",
"c  c #433D3A",
"v  c #4B3E39",
"b  c #513D35",
"n  c #4C423B",
"m  c #43433B",
"M  c #54433B",
"N  c #59463D",
"B  c #584A3F",
"V  c #4A4744",
"C  c #5A4640",
"Z  c #544A43",
"A  c #5B4B43",
"S  c #5B4F49",
"D  c #514B46",
"F  c #5C5047",
"G  c #5B524C",
"H  c #5A5653",
"J  c #5B5955",
"K  c #5D5C5C",
"L  c #565452",
"P  c #614E46",
"I  c #694D49",
"U  c #624D48",
"Y  c #615046",
"T  c #64534A",
"R  c #69554D",
"E  c #6A594E",
"W  c #65584F",
"Q  c #6D5650",
"!  c #6B5B53",
"~  c #6D5D59",
"^  c #625A56",
"/  c #715E55",
"(  c #725E58",
")  c #725652",
"_  c #6B625C",
"`  c #736057",
"'  c #74635B",
"]  c #7A675D",
"[  c #7C695F",
"{  c #75695E",
"}  c #6B6562",
"|  c #686765",
" . c #7A6760",
".. c #7C6B63",
"X. c #746A67",
"o. c #7B736D",
"O. c #7A7875",
"+. c #816E65",
"@. c #816F68",
"#. c #827167",
"$. c #84736B",
"%. c #89766D",
"&. c #87796F",
"*. c #8A796E",
"=. c #8A7770",
"-. c #867B73",
";. c #8C7B72",
":. c #847B79",
">. c #8D7D7A",
",. c #917E75",
"<. c #927F78",
"1. c #8E8077",
"2. c #85817D",
"3. c #928176",
"4. c #95837A",
"5. c #99867D",
"6. c #9C897E",
"7. c #97887E",
"8. c #858481",
"9. c #8E8C89",
"0. c #9B8780",
"q. c #948983",
"w. c #9C8B82",
"e. c #958A87",
"r. c #95918D",
"t. c #9F9188",
"y. c #9C9995",
"u. c #9A9995",
"i. c #A18E85",
"p. c #A28F88",
"a. c #A39187",
"s. c #A5938B",
"d. c #A9968C",
"f. c #AA998E",
"g. c #AA9790",
"h. c #A79990",
"j. c #AD9C92",
"k. c #A29E99",
"l. c #A89A97",
"z. c #B19E95",
"x. c #B19F98",
"c. c #A4A19C",
"v. c #AEA198",
"b. c #B4A196",
"n. c #B5A39A",
"m. c #B9A59D",
"M. c #BBA99F",
"N. c #B6A89F",
"B. c #A6A5A1",
"V. c #AAA4A2",
"C. c #ADABA6",
"Z. c #ADACA8",
"A. c #BDABA3",
"S. c #B6AEAB",
"D. c #B7A8A0",
"F. c #B5B3AE",
"G. c #BDB0AA",
"H. c #BCB9B4",
"J. c #B9B5B2",
"K. c #C1AEA6",
"L. c #C2AFA8",
"P. c #C2B1A6",
"I. c #C4B3AB",
"U. c #C9B6AD",
"Y. c #C9B9AE",
"T. c #C5B5B3",
"R. c #CAB7B0",
"E. c #CCBBB3",
"W. c #C2BEBA",
"Q. c #C7BCB8",
"!. c #D2BFB5",
"~. c #D2BFBB",
"^. c #C5C1BC",
"/. c #CAC3BD",
"(. c #D1C1B7",
"). c #D4C4BB",
"_. c #D8C6BE",
"`. c #D7C8BE",
"'. c #D9C9BF",
"]. c #CBC6C2",
"[. c #CECBC5",
"{. c #CFCCC8",
"}. c #C7C4C0",
"|. c #D9C7C0",
" X c #D2CCC6",
".X c #DCCCC4",
"XX c #D1CEC9",
"oX c #DBCEC8",
"OX c #D5C5C1",
"+X c #D7D4CD",
"@X c #D4D1CC",
"#X c #D9D5CE",
"$X c #DFD1C7",
"%X c #D6D4D0",
"&X c #DAD7D0",
"*X c #D9D6D1",
"=X c #D9D6D1",
"-X c #DBD8D1",
";X c #DBD8D2",
":X c #DCD9D2",
">X c #DCD9D3",
",X c #DDDAD2",
"<X c #DDDAD5",
"1X c #DCD9D2",
"2X c #DEDDD8",
"3X c #E0CEC7",
"4X c #E0CFC9",
"5X c #E2D3CB",
"6X c #E0D1C7",
"7X c #E4DAD4",
"8X c #EBDCD5",
"9X c #E1DED9",
"0X c #EBDEDA",
"qX c #E7D6D1",
"wX c #E5E2DD",
"eX c #E5E2DD",
"rX c #ECE3DE",
"tX c #F2E4DE",
"yX c #EAE6E1",
"uX c #EDEAE5",
"iX c #F2E5E2",
"pX c #F3EAE5",
"aX c #F4EDEA",
"sX c #F9EEE9",
"dX c #FAECE6",
"fX c #F8F1EB",
"gX c #FEF7F3",
/* pixels */
"/.].[.[.[. X X X X X X@X@X@X@X@X@X@X@X@X@X@X@X=X=X=X=X=X=XwXyXuXuXuXrX9X=X=X<X;X;X=X=X=X=X=X;X=X=X=X;X=X=X;X;X;X;X;X;X;X;X+X=X;X",
"].].[.[.[. X XXX X X@X@X@X@X@X@X@X@X@X@X@X+X+X=X=X+X9XyX9X].B.r.9.u.F.=XuXeX<X;X>X>X;X=X;X;X;X;X;X;X;X;X;X;X;X;X>X;X;X;X;X;X;X;X",
"].[.[.[. X X XXX X@X@X@X@X@X@X@X@X@X@X@X+X+X=X+X<XyX[.2.c = .     . + 0 } F.eXeX=X;X=X=X;X;X;X;X;X;X;X;X;X;X;X>X>X>X>X>X;X;X;X;X",
"].[.[.[. X XXXXX@X@X@X@X@X@X@X@X@X@X@X@X=X=X=XeXXXO.0 . . O $ # # # + .   + D H.yX2X%X>X>X;X;X;X>X>X;X;X;X;X>X>X>X>X>X>X>X;X;X;X",
"].[.[.[. X X@XXX@X@X@X@X@X@X@X@X@X@X+X+X@X<XrXk.r . O # & > # > > > > # @ .   % o.@XeX>X>X>X>X>X>X>X>X>X;X;X;X>X>X;X>X>X>X;X;X;X",
"[.[.[. XXXXX@XXX@X@X@X@X@X@X@X@X@X+X+X+XeX@X^ . . + # > > > < 2 2 < 2 > O O O .   f y.eX9X>X>X>X>X>X>X>X>X;X;X>X>X>X>X>X>X>X;X;X",
"[.[.[. XXXXX@X@X@X@X@X@X@X@X@X+X+X+X=XeXC.p   . . @ , > > > 2 2 < > < < & O O O . . 1 :.<XeX;X<X>X;X;X>X>X>X>X>X>X>X>X>X>X>X>X;X",
"[.[.[.XXXXXX@X@X@X@X@X@X@X@X@X+X+X<X<X8.=   . . @ > < < 7 6 2 2 < < > : : $ $ O . . . @ G ].eX<X>X>X>X>X>X>X>X>X>X>X>X>X>X>X>X;X",
"[.[. XXXXXXX@X@X@X@X@X@X@X@X@X+X9XH.K % . . . + > < 2 7 t u t t u 7 2 < > : # $ + . . + @ a r.9X2X>X>X>X>X>X>X>X>X>X>X>X>X>X>X;X",
"[.[.XXXXXXXX@X@X@X@X@X@X@X@X+X9Xc.m = .   . . + > 2 t k k M M A P M k i 2 > : : # + . . X - = X.yX>X<X>X>X>X>X>X>X>X>X>X>X>X>X>X",
"[.[. XXXXXXX@X@X@X@X@X@X@X@X2Xk.0 = .   . . @ > 7 u k A T `  .$.%.( P v j i < < > & O .   . 1   r.uX;X>X;X>X>X>X>X>X>X>X>X>X>X>X",
"[.[. XXXXXXX@X@X@X@X@X@X@X=X{.p * o     . # > t j M T ' #.=.5.w.0.%.~ T C b h t t < # + .   o o - @X9X;X;X>X>X>X>X>X>X>X>X>X>X>X",
"[.[.[. XXXXX@X@X@X@X@X@X@XeXO.X %   . + = < u l N E ..$.;.5.w.d.g.w.;...( P M b j t , + .     o   O.uX=X>X>X>X>X>X>X>X>X>X>X>X;X",
"[.[.[.XXXXXX@X@X@X@X@X@X;X[.9 X . X @ , e x N T / ] %.3.4.w.a.d.j.s.i.w.7...! T P N t = @ +       4 <X2X;X>X>X>X>X>X>X>X>X>X>X;X",
"[.[.{.XXXXXX@X@X@X@X@X@XeXr.  X . % , t b E [ 4.w.6.5.5.a.s.m.m.j.n.d.w.i.,.]  .` T N i , = .       B.yX=X>X>X>X>X>X>X>X>X>X;X;X",
"[.[.{.XXXXXX@X@X@X@X@X@XeXH   o & 0 a A ..;.4.i.w.3.a.j.M.M.A.A.A.A.m.j.i.f.i.4.,.] ` B t 5 @ X X   ^ uX=X<X>X>X>X>X>X>X>X>X;X;X",
"[.[.{.XXXXXX@X@X@X@X@X+X>Xp . @ = e A / ..,.w.d.w.m.m.K.K.M.P.U.I.Y.U.U.m.A.m.n.j.w.#.E M u > + .   q 9X<X>X>X>X>X>X>X>X>X>X;X;X",
"[.[.XXXXXXXX@X@X@X@X@X=X@Xq o = 7 M ! ] ,.j.P.P.K.(.).!.E..X_.).(._.)..X3XE.A.m.j.f.3.] T l 5 % o   * XX9X;X>X>X>X>X>X>X>X>X>X;X",
"[.[.XXXXXXXX@X@X@X@X@X>X[.0 % 5 u A ..0.b.m.m.s.K..X5X.XE._..X_..X5X5X$X5X.X(.K.j.i.,.+.! A e , = X o W.eX;X>X>X>X>X>X>X>X>X>X;X",
"[.[.XXXXXXXX@X@X@X@X@X>X].y 1 5 l T =.w.4.w.d.P..X$X$X5X5X.X_.E.R.P.Y.K.A.m.z.j.f.j.a.5...! j 7 , * * F.eX;X>X>X>X>X>X>X;X>X>X;X",
"[.[.XXXXXXXX@X@X@X@X@X>X].f f r v [ 3.4.d.z.a.6.4.=.$.=.i.b.I.K.A.d.j.m.z.a.5.4.,.6.6.i.5./ N t 5 1 4 C.yX=X>X>X>X>X>X>X;X;X;X;X",
"[.[.XXXXXXXX@X@X@X@X@X<X^.D V Z A +.f.a.5.,.$.%.5.4.5.5.5.,.z.A.A.m.a.z.j.j.j.a.6.6.,.3.,.{ T j y 0 o k.yX=X>X>X>X>X>X;X;X;X;X;X",
"[.[.XXXXXXXX@X@X@X@X@X=X{.D c Z T E ` *.i.i.5.5.5.w.z.j.b.I.E.(.P.d.;.4.w.5.4.5.d.a.a.i.[ P v a 0 y o u.yX=X>X>X>X>X;X;X;X;X;X;X",
"[.[.XXXXXXXX@X@X@X@X@XeXXXp a n n 8 k ! *.a.5.i.j.s.b.m.d.a.a.s.s.b.m.K.U.M.j.f.a.5.s.4.' N t t e 0 - Z.aX=X>X>X>X;X;X;X;X;X;X;X",
"[.[.XXXXXXXX@X@X@X@X;XW.g 4 p f 5 6 6 t v =.z.U.Y.I.U._.!.P.M.K.!.).|.!.E.E.).K.A.n.7.A N v < r Z = @ C.^.9X<X>X;X;X;X;X;X;X;X=X",
"[.[.XXXXXXXX@X@X@X@X9Xc.. * 5 r 1 5 O O @ 7 T ;.I._.6X5X(._.3X5X'._..X5X.XI.A.s.,...l 7 t e & 0 1 1 ; = + H.eX=X;X;X;X;X;X;X=X+X",
"[.[.XXXXXXXX@X@X@X@X>X^.v @ 4 a z j v r r j T ~ i._.8XtXqX0X0XrX7X0X7X8X8XL.;.'  .S j x a 5 1 1 1 - * t ..S.eX=X;X;X;X;X;X;X=X+X",
"[.[.XXXXXXXXXX@X@X@X<XT.M w r c _ { ! '  . .#.a.h.I.5X0X0XpXpXyXpXpXrX5X_.A.%.' { n z T ' T n r s - 1 l ~ ^.eX;X>X;X;X;X=X=X=X=X",
"[.[.XXXXXXXXXX@X@X@X<XW.c y - A ! W ;.h.m.d.s.D.I.(.$X8XrXpXsXrXpXsX0X5X.XR.b.w.a.w.4.0.1.' A n 5 4 n t v [.9X;X<X;X=X=X;X;X;X;X",
"[.[.XXXXXXXXXX@X@X@X=X+Xy @ % { j.4.E.5X|.+X XW.Q.rXsXpX5XU.).A.7.A.8XpXsX5X|.0XiXiXqX5XN.1.w.X.4 - c u ^ @X2X;X>X;X=X=X;X;X;X;X",
"[.[.XXXXXXXXXXXX@X@X@XeXV   * $._.Y.q.S V.| K | ].:.t.E.#.N ] [ N 7 T T.T.Q.F.o.8.V./.v.(.Y..Xo.1 % 5 b ^ eX;X;X;X;X+X=X;X;X;X=X",
"[.[.{.XXXXXXXXXX@X@XXXyXK   - T j.-.F '  .o.X.q.>.C T n.M j N / T x $ ! j ~ S.O.| q.~ k  .f.).' 4 = M ! :.uX=X;X;X+X+X=X=X=X+X+X",
"[.[.{.XXXXXXXXXX@X@XXXrX|   q Z ~ B $.P.P.b.G.I.I.R.5Xs.t M P ;.' b # ! P.z.w.h.e.w.w.7.! ` *.S q 1 X i S.eX=X=X=X=X=X=X=X+X+X+X",
"[.[.XXXXXXXXXXXX@X@XXXwXu.  4 A A k 1.)..X8XrX8X5X0XoXM b P R ,...b u u I.`.7XrXoX8X_.N.#.T Y Z a 4 . = [.9X=X=X=X+X+X+X+X+X+X+X",
"[.[.XXXXXXXXXX@X@X@XXXeXr.  1 n A M +.D.(.$X5X8XaXrXa.! ` +.%.d.;.M b j 0.7XrX0X5X3X.XN.' ] / n p - # } yX=X=X=X=X+X+X+X+X+X+X+X",
"[.[.XXXXXXXXXX@X@X@X@X=X@Xf + z P ;.i.f.E.5X8X5X|.I.d.' A E ;.i.,.x i k $.j.).iX$X.X).j.%.#./ n q = l H.eX=X=X=X=X+X+X+X+X+X+X+X",
"[.[.XXXXXXXXXXXX@X@X@X=XXXq X t / d.A.P.A.n.P.n.6.b.<.! 7 t  .z.,.u t t T d.*.b.5X_.Y.A.n.w.! v 4 1 H 2X=X=X=X=X+X+X+X+X+X+X+X+X",
"[.[.XXXXXXXXXXXX@X@X@X>XW.. + e ` A.!.).`.E.m.4.a.5.5. .7 < R d.g.C 7 > ' 4.,.] b.3X_.P.A.b...c ;   J uX+X=X=X=X=X+X+X+X=X=X=X=X",
"[.[.XXXXXXXXXXXX@X@X@X@X<X_ X 6 ( m.R.)._._.n.w.z.U.).j 2 x ..p.j.;.k   X.5Xj.*.$.R._.E.A.D...a =   O.yX@X=X=X=X=X=X=X+X=X=X=X=X",
"[.[.XXXXXXXXXXXX@X@X@X@X=XeXf = ( j.A.D.A.N.i.b.A.tX+Xi A =.5.d.m.z...7 $.gX.Xm.%.4.D.n.n.m.#.r ; 2.+X<X=X=X=X=X=X=X+X=X=X=X=X=X",
"[.[.XXXXXXXXXXXX@X@X@X@XXXyXO.% ' s.M.N.j.d.d.P.7XgXqX#.3.n.Y.R.P.Y.d./ n.sXpX.Xa.] 4.4.i.b.$.1 H fX=X=X=X=X+X=X=X=X=X=X=X=X=X=X",
"[.[.XXXXXXXXXXXXXX@X@X@X@X9XZ.= W 4.j.a.w.4.n.|.pXiXY.(.(.).qXrXrX.XU.R.I.).sX0XE.=.' *.5.f...= r.rX@X=X=X=X=X=X=X=X=X=X=X=X=X+X",
"[.[.XXXXXXXXXXXXXX@X@X@X@X+X=Xd Z 3.a.0.;.4.I.7XpXA.,.' p.Y.5XfXaX8Xx...;.5.).dX5Xz.' ] ;.d.W 0 }.2X+X=X=X+X+X+X+X+X+X+X+X+X+X+X",
"[.[. XXXXXXXXXXXXXXX@X@X@XXXeX} z -.0.0.$.a.(.pXI.*.+.R Q a.).$X$XD.' Q  .+.@.8X8XI.%.W $.i.n V eX=X=X+X+X+X+X+X+X+X+X+X+X+X+X@X",
"[.[.[.XXXXXXXXXXXXXXXXXX@XXXwXy.t ..7.$.#.m.4X5X..+.]  .4.i.A.R.(.s.+.=.$.$.R q.pX_.i.! ~ ;.e X.uX@X=X+X+X+X+X+X+X@X@X@X@X@X@X@X",
"[.[.[.XXXXXXXXXXXXXXXXXX@X@X;X].a ! 3.=.w.A.8Xw.' 5.;.0.d.j.E.Y.oXI.s.d.5.;...A $X8XA...! ! a @X9X@X@X+X+X@X+X@X@X@X@X@X@X@X@X@X",
"[.[.[.[.XXXXXXXXXXXXXXXX@X@X@XeXJ F 0.;.a.A.E.! 3.i.a.m.A.E.4Xi.z.U.a.n.z.0.0.W 0.5XE.;.T M r u.eXwX;X@X+X+X@X@X@X@X@X@X@X@X@X@X",
"[.[.[.[.XXXXXXXXXXXXXXXX@X@X@X9Xc.A 5.7.w.A.a.;.n.A.K.E.E.3XiXU.A.5X)._.).P.I.w.=.Y.A.w.T z     L F.[.9X@X+X@X@X@X@X@X@X@X@X@X@X",
"[.[.[.[.[.XXXXXXXXXXXXXXXXXX+XaXJ.n *.0.;.A.z.Y..XqXqX8X5XOXT.Q.Q.l.l.T.~.|.5X(.j.A.a.s.Y 4   X     o 9.uX@X@X@X@X@X@X@X@X@X@X@X",
"].[.[.[.[.XXXXXXXXXXXX{.@XeX%X9.* 4 &.=.3.I.E._.Y.0.( U l 7 2 2 2 $ $ 3 u v 7._.R.R.#.*.l .             8.eXeX=XXXXX@X@X@X@X@X@X",
"].].[.[.[.XXXXXX[.XX=XeX%X8.4     X ! $.w.E.(.E.b.4.;.;.( ) Q I I ) I R ' $.%.i.(._...B 5                 f y.@XyXeX=XXX@X@X@X@X",
"].[.[.[.[.[.XX=XeX9XW.O.;           q ..,.(.R.A.j.b.)._.)._.|..X.X.X!.U.m.n.w.;.P._.%.u @                     ; J r.[.eX<XXXXX@X",
"].].[.XX<X9X;XH.2.c o                 n &.D.b.d.w.b.R._.|..X.X.XOX_._.E.R.I.j.,.w.D.$.,                             * K F.eX9X@X",
"[.=X9XXXB.| w X                       o F #.4.5.f.M.E.3X5X0XqX5X5X5X5X.X).P.z.w.=.$.S X                                   V c.=X",
"[.B.K ;                                 - n ' *.;.4.s.x.d.a.p.h.h.A.P.E.E.a.;.*.#.N =                                         w ",
"9                                         1 ! '  . .%.$.U / #.0.5.%.#.,.d.$.W T Z =                                             ",
"                                            9 Z ~ { #.$.w.g.d.x.b.d.0.;.%.#.Z 0 .                                               ",
"                                              X z ! { ;.d.b.D.N.v.d.w.3.#.{ a                                                   ",
"                                                  l ..=.7.s.j.N.h.7.;.=.$.v .                                                   ",
"                                                    1 S ..;.1.w.t.7.$._ a                                                       ",
"                                                        % 0 y a d y , X                                                         ",
"                                                                                                                                ",
"                                                                                                                                ",
"                                                                                                                                "
};
