/* XPM */
static char *c39eb59408bd4968b24290fca94a8352NOQ7b905a5eGE0Gs[] = {
/* columns rows colors chars-per-pixel */
"64 64 256 2 ",
"   c #47704C",
".  c #59575C",
"X  c #35333B",
"o  c #636065",
"O  c #4B494E",
"+  c None",
"@  c #6D6D73",
"#  c #443B42",
"$  c #2F2D34",
"%  c #6A6970",
"&  c #818188",
"*  c #3A383F",
"=  c #65646B",
"-  c #5E5D62",
";  c #443E44",
":  c #36353B",
">  c #2E2C33",
",  c #60636C",
"<  c #73717A",
"1  c #626369",
"2  c #2D2A32",
"3  c #444249",
"4  c #3F3B42",
"5  c #86878D",
"6  c #737177",
"7  c #352E36",
"8  c #737278",
"9  c #5E5D64",
"0  c #39353C",
"q  c #2C2229",
"w  c #2A282E",
"e  c #68666D",
"r  c #4A525A",
"t  c #66656A",
"y  c #36353C",
"u  c #65646B",
"i  c #6D6B70",
"p  c #29252D",
"a  c #6D6B72",
"s  c #403E47",
"d  c #68676E",
"f  c #848287",
"g  c #817F89",
"h  c #7E7C7F",
"j  c #6E6C72",
"k  c #8B8A8F",
"l  c #6C6B70",
"z  c #5A5E64",
"x  c #807E84",
"c  c #626068",
"v  c #7C7B80",
"b  c #78777C",
"n  c #321B21",
"m  c #939396",
"M  c #9E9DA1",
"N  c #3E1318",
"B  c #B9B7BE",
"V  c #7B7A80",
"C  c #807E85",
"Z  c #817F81",
"A  c #454E56",
"S  c #868489",
"D  c #35393F",
"F  c #55545A",
"G  c #373A43",
"H  c #5D636D",
"J  c #646369",
"K  c #4E2E31",
"L  c #5A727D",
"P  c #878692",
"I  c #3C161A",
"U  c #898891",
"Y  c #638491",
"T  c #537D8D",
"R  c #3D3C42",
"E  c #8F8F93",
"W  c #BEBDC1",
"Q  c #BEBBC2",
"!  c #7E7C7F",
"~  c #A3A1AF",
"^  c #B5B5BA",
"/  c #A19FAA",
"(  c #BAB9BE",
")  c #576D7B",
"_  c #9FBAC4",
"`  c #7EA3AF",
"'  c #A4BDC9",
"]  c #B4C8D2",
"[  c #B1C6D0",
"{  c #ABC2CD",
"}  c #88AAB7",
"|  c #82A5AF",
" . c #8FAEB7",
".. c #9CB8C4",
"X. c #3B3944",
"o. c #2C2B33",
"O. c #99B5BF",
"+. c #BCCED7",
"@. c #92B0BA",
"#. c #2F2E38",
"$. c #32313A",
"%. c #9FB8C2",
"&. c #98B4BD",
"*. c #8CACB5",
"=. c #423F4B",
"-. c #42414C",
";. c #AEC4CE",
":. c #96B2BE",
">. c #3F3E49",
",. c #9BB7C1",
"<. c #87A9B2",
"1. c #99B6C3",
"2. c #A6BFCA",
"3. c #A8C0CC",
"4. c #92B1BF",
"5. c #46434E",
"6. c #29272F",
"7. c #A1BCC8",
"8. c #B8CBD5",
"9. c #383741",
"0. c #3D3C48",
"q. c #34333E",
"w. c #85A7B2",
"e. c #62626C",
"r. c #666670",
"t. c #7BA1AE",
"y. c #8CACBA",
"u. c #A6BEC7",
"i. c #3F3A43",
"p. c #403C45",
"a. c #85A8B6",
"s. c #69939F",
"d. c #4E4D54",
"f. c #580707",
"g. c #ABC1CB",
"h. c #8EAEBC",
"j. c #6B96A0",
"k. c #8CA9B3",
"l. c #7A9EAC",
"z. c #484653",
"x. c #A6BDC6",
"c. c #82A5B4",
"v. c #A3BCC5",
"b. c #739BA4",
"n. c #749CAA",
"m. c #6F99A2",
"M. c #36171B",
"N. c #51505A",
"B. c #6A6A75",
"V. c #7DA1A9",
"C. c #5F8C97",
"Z. c #C0D1D9",
"A. c #C6D6DE",
"S. c #578691",
"D. c #5F5F6A",
"F. c #3A262E",
"G. c #7199A8",
"H. c #494951",
"J. c #95B4C1",
"K. c #3A1B1F",
"L. c #25232B",
"P. c #540405",
"I. c #A9BFC9",
"U. c #628F9A",
"Y. c #B9C9D2",
"T. c #789DA6",
"R. c #5B5A61",
"E. c #73959F",
"W. c #98B0B9",
"Q. c #51818E",
"!. c #221B22",
"~. c #322228",
"^. c #212027",
"/. c #67919D",
"(. c #56555C",
"). c #402C33",
"_. c #45464F",
"`. c #696873",
"'. c #D2DEE4",
"]. c #C4D3DB",
"[. c #86858C",
"{. c #929399",
"}. c #51535B",
"|. c #4B4956",
" X c #412024",
".X c #6C6C7A",
"XX c #908E96",
"oX c #83A1AA",
"OX c #7D949E",
"+X c #89898F",
"@X c #71707E",
"#X c #87A4AE",
"$X c #A09FA5",
"%X c #929EA5",
"&X c #477C89",
"*X c #6E6F76",
"=X c #3F3741",
"-X c #98989F",
";X c #6B97A4",
":X c #788A92",
">X c #5A8A96",
",X c #53626A",
"<X c #AAACB1",
"1X c #7A7981",
"2X c #8D8C93",
"3X c #6F7C84",
"4X c #73767C",
"5X c #510708",
"6X c #859CA7",
"7X c #8998A1",
"8X c #6D818B",
"9X c #B3B3B7",
"0X c #687780",
"qX c #7F7E84",
"wX c #97A4AB",
"eX c #757382",
"rX c #585864",
"tX c #400B0D",
"yX c #331216",
"uX c #56777F",
"iX c #96ADB6",
"pX c #7C9AA2",
"aX c #688C97",
"sX c #D9E2E7",
"dX c #6F8791",
"fX c #637178",
"gX c #316A7A",
"hX c #788F99",
"jX c #B8C2C7",
"kX c #381F24",
"lX c #526D79",
"zX c #35333B",
"xX c #394953",
"cX c #98A9B2",
"vX c #ACBDC7",
"bX c #457784",
"nX c #557E88",
"mX c #838F97",
"MX c #44555D",
"NX c #535961",
"BX c #4B0C0C",
"VX c #596D76",
"CX c #A5B5BF",
"ZX c #A3B0B8",
"AX c #CEDAE0",
"SX c #AEB8BF",
"DX c #5F6972",
"FX c #5B7C87",
"GX c #62848F",
"HX c #2E6370",
"JX c #445F68",
"KX c #2F5C68",
"LX c #49727F",
"PX c #3E7482",
"IX c #7C8184",
"UX c #334044",
/* pixels */
"                                                                                                                                ",
"                                                                                                                                ",
"                                                        . . . . . .                                                             ",
"                . O O O .           j # 0 > 2 2 2 2 X : $ $ $ $ $ : : : s s s X X X X X 3 3 X X X X X X X X # O                 ",
"            * > $ w w w $ : X 3 0 % 1 ; 6.6.L.L.L.6.o.$.$.#.o.o.o.o.#.$.$.X.9.9.9.9.q.$.zX#.o.6.L.L.^.^.^.L.y *                 ",
"          . 4 zX!.!.^.^.^.6.$.i.p.; i.L.!.^.^.^.^.L.L.o.#.o.6.6.6.6.o.#.$.q.#.#.$.$.#.o.6.6.6.L.L.^.!.!.!.6.; 4                 ",
"            7 p !.!.!.!.!.~.~.~.~.F.~.!.M.M.M.M.M.M.M.K.kXkXkXK.K.K.K. X X X X X XK.K.K.K.M.M.M.yXyXyXyXyXK.K #                 ",
"            q n tXtXtXtXtXtXBXBXBXBX5X5X5X5X5X5X5XP.P.P.f.f.f.f.f.f.f.f.f.f.f.f.f.f.f.P.P.P.P.P.P.P.P.P.P.f.f.N                 ",
"              I M.yXM.M.M.M.K. X X X XkXkXkXkX~.~.F.F.F.F.F.F.F.).).).).).).).).).).F.F.F.F.~.~.~.~.~.F.F.).; #                 ",
"            O 0 zX6.6.6.6.o.$.$.$.$.o.o.o.o.#.#.#.$.$.q.9.9.X.X.9.0.=.-.-.-.-.5.-.>.X.9.9.q.q.q.q.q.q.9.9.5.c 9                 ",
"              # ; o.o.o.o.o.#.#.o.o.#.#.#.#.#.$.q.q.q.9.>.=.-.=.>.z.+ z.|.|.+ z.=.0.X.X.q.$.$.$.$.q.$.$.q.X.F 9                 ",
"              < b |.-.>.0.=.5.>.0.0.X.0.0.0.>.-._.H.z.z.|.|.z.|.+ N.+ + N.N.+ z.z.z.5.-.>.=.5.-.>.=.>.X.X.>.c <                 ",
"              P -X@Xe.r.`.`.B.`.`.`.B.B.B..X.X*X@X@X@X@XeXeXeX1X1XeXeX@XeX@X@X.X.X.X.X.XB..X.X.XB.`.`.r.e.B.XXM O               ",
"              g 5 r.N.N.+ N.}.(.(.rXrXrXrXR.R.D.D.R.D.D.D.e.e.r.B.B.r.e.e.D.D.D.D.D.D.e.e.e.r.r.r.r.r.r.e.B.[.U .               ",
"              = 8 d.5._.|.|.|.d.N.N.5.=.=.0.X.0.9.9.X.X.X.X.0.0.>.5.-.>.>.>.0.0.0.>.0.0.0.-.z.|.+ N.N.N.5.z.H ,                 ",
"              o e r.5.=.=.=.=.=.0.p.p.p.=.0.0.>.0.p.p.p.i.p.p.i.p.p.5.5.-.=.=.-.-.-.-.-.z.z.z.5.5.=.=.>.q.q.r =                 ",
"              O e XXB.p.q.X.=.>.>._.i.=X=X=Xp.p.p.i.i.i.=X=Xp.=.=.=.5.5.-.5.H.H.z.z.5.=.|.rX_.5.p.9.q.$.>.r.8 =                 ",
"              O u 2X{.r.MXlXlXVXuXaXfXp.+ ,XMXNX,Xd.p.>.+ }.5.5.=.=X=Xi.p.-.-.>.p.p.>.0.-.H.X.9.X.9.i.d.e.qXf O                 ",
"              . u [.$X7Xl./.U.G.s.;XpXDX6Xl.bXS.Q.uX,XVXE.oX3XH.p.9.zX9.-.H._.=.-.5._.H.H.5.>.>.5.N.D.*X[.{.6 .                 ",
"                d 2XwX#X4.} ` ` n.G.` #X` &XgXQ.>XC.s.j.s.U.j.0X9.$.#.,XOX7X7X:X0Xe.}.d.d.H._.d.rXr.1X$X9X-X@                   ",
"                @ [.7Xy.' 7.} t.t.t.y. .t.PXgX;Xn.Q.S.>X>XQ.C.T.,X$.xXoX' _ ' 7.@.oX:X}.p.i.-.R.*XXX<X9X<X{.%                   ",
"                t & [.7X3.2.h.` l.c.V.k.@.j.C.h.y.j.S.&XS.>XG.w.pXJX8X_ v.u.' ,.<.| b.E.,Xp._.*X-X<X<X-X2Xl ,                   ",
"                % & qXB.cXx.:.` j.j.C.l.c.w.w.n.c.a.U.&XbX/.t.w.@.pXk.:.| 4.h.} J.*.` a.oXN.R.{.$X-X2XXX*Xz O                   ",
"                < a @XB.2XcX@.} t./.Q.m.OX%.&.` y.y.U.S.S.t.n.` :.%.u.J.t.c.c.` <.<.1.@.:XD.qX$X-X2X2XXX(.t                     ",
"                C 5 +X4X%X_ *.J.h.U.&Xj.OXcX*.} a./.>Xj.;Xt.V.a.:._ &.@.t.G.h.l.b. .' 1.&.wX+X[.{.+X2X+X5 <                     ",
"                x k 1X(.3X:.,.1.` s.>Xl.6X6X` n.G.C.C.s.;Xm.` h.W. .t.@.w.k.;.,.*.4.4.1.3.{ CX*X}.N.}.e.5 E                     ",
"                o e R.(.r.wX;.,.b.n.` J.iX:Xm.C.s.C.U.C.U.m.y.E.FX*.%.I.W.6X%.3.} m.;Xa.1.,.[ SX*Xd.(.r.a %                     ",
"                  d (.B.& XXCX2.V.G.t.1.I.7XGXj.b.U.m./.m.m.U.PX&X4.I.%.O.oXk.' } G.l.c.@.J.,.8.jX{.1X`.a i                     ",
"                  % r.4X[.XX%XW.*.n.y.Y.;.W.oX` m.b.<.pXlXHXgXgX&X} ;.%. . .{ 1.y.t.} 4. .w.t.2.8.%X(.e.8 j                     ",
"                  , v [.& +X+X4X:X*.' ;.7.1.w.m.j.b.| k.pXbXxXKXQ.a.%.O.,.v.2...y.a.} O.7.7.7.h.J.%.%X+X1 =                     ",
"                  O m $XXX{.7X6XoX .,._ ' O.*.j./.T.| O.] } nXdXV._ v.E.OXx.3.4.y.c.` 3.8.8.7.:._ { [ 2X6 O                     ",
"                    B 9X$XZX%.t.b.w..._ x.%.<.j./.m.k.v.;.| ` O.@.x.u.fXH.wX8.7.a.c.c.;.[ 3.{ [ ] u.iX& i                       ",
"                    B 9XSX[  .s.m. .v.v.x.#X .w.T.*._ [ [ ,.x.%.&.g.u.3Xd.4X] Y.,.y.y.4.} _ [ u._ &.#X5 C                       ",
"                    Q 9XjXu.| s.n.&._ u.ZXmX%.3.%.4.,.] ].8.Y.u.&.%.%.%XfXB.ZX] v.&. .&.<.<.a.,.&.#X8Xv h                       ",
"                  . W 9XwXW.} j.b. .v.iX8Xw...{ [ t.:.u.] Z.+.{ v.x.,.V.T.k.g.g.{ 3.3.v.3.iX#X .k.0X- e o                       ",
"                  ~ ( <XIXmXOXj.`  .v.:XnXJ.1...] 2.x._ v.] [ { I.x.@.T.| ,.8.8.u.2.3.2.[ +.] 3.O.4X- t                         ",
"                  / ^ ZXl.iX3X,Xs.a.k.uXs.;.] g.8.8.3._ v.g.8.] g.;.O.<.*.%.8.g.,._ _ O.g.A.A.8.[ %XZ o                         ",
"                  g $XOXa.;.W.3X8XpX:XFXw.+.+.8.Z.+.[ [ ] [ Z.].Y.I.| V.<._ ;._ O.&.&.k.;.+.Y.Y.+.jXM                           ",
"                  @ qXdX7.] O.@. .k.V.#X:.2.Z.Z.].8.] _ ] +.+.Z.Y.:.b.b.` y.' 7.,.&.*.*.2.;.+.A.].SXm O                         ",
"                . u - 0X[ ] :.*. .*.<.,.v._ [ +.+.` ,.g.8.+.Z.8.;.*.` m.b.w.7...@.&.:.w.:.;.Z.].].<Xf o                         ",
"                = 1 d.3X+.;.<.V.` <.*.' ] [ 2.h.w.n.c...y.7.+.8.cX8Xj.s.T.*._ :.*.*.` ` 1.[ Z.Z.].9X! j                         ",
"                h l e.:X8.u.V.` w.*. .v.+.+._ h.n.;X4.J.G.:.{ 8.%XDXaXT.| *.} w. .| | c.h.;.].A.] <Xb ,                         ",
"                < a r.hX[ O.T.| <.<.@.3.+.] 3.7.a.a.1.' _ 3.1...O.CXiX6XdXdXuXE.,.<.@.:.y...A.Z.:X`.c 9                         ",
"                i - }.hX;.*.l.V.<. .&.[ O.h.;.{ ' _ 7.7...h.y.l.2.+.8.mX3XcXhXhX%.O.,.%. .' +.wX(.d.- %                         ",
"                @ R.d.hX3.t.j./.m.} v.{ n.h._ x.3._ @.` :.} a.oX_ { { %. ...v.,..._ ,.2.%.:.g.k.NXN.B.%                         ",
"              . u d.d.hX_ s.Q./.T.c.' %.y.1.1.:.@.a.y.T.@.' :.:.;.;.u._ ,.&.' 3.O.%._ { { *.W.wX}.(.4XJ                         ",
"              O z N.d.3X,.b.>XU.l.y...} O.1._ O.| h.u.g.2.1.#X{ [ [ g.2.' 2.7.7._ ;.{ ;.Z.A.Y.jX- N.r.i                         ",
"              o 1 (.H.*X%XE.| ` :.&.c.h.,.4...' ..' 3.' ' 3.:.[ ;.g.I.2.g.[ ,._ 7.7.%.;.A.'.AXY.e.H.e.t                         ",
"              = 1 (.NXmX{.8XaXy.;.w.C.1.1.y.,.} 1.' { ' ] ] x.u.;.;.I.u.] x.V.,...1..._ A.'.AXjXqXd.R.@                         ",
"              = 8 R.0X..,.s.S.` 3.} t.} 4.7.2.@.7.I.3.' { { v.%.g.g.I.x.g.m.V.:._ O.&.O.A.sXsXAX<X(.R.@                         ",
"              x l R.dX' 4.;X/.4.1.J.2.2.7.[ [ ] [ { ;.g.v.v.v.%.x.I.I.u.k.uXT.,...4.w.@.].sXsX'.Y.0XD.@                         ",
"              < F NXE.7.l.>X;Xh.4.J.7.[ ] { 2.;.;.3.&. .W.O.%.%.x.v.@.} b.aXaX#X| c.` :.].'.'.A.[ mXe.@                         ",
"              % R.,Xl.../.S.` a.4.7.3.] 8.1.c.l.` <.T.| :.&.<.| #X@.*.<.` ` OXfXdXG.j.%.AX'.'.8.v.%X`.d                         ",
"              @ (.VXh.u.m.G.a.h.1.7.{ 8.8.j.HXgXC.k.T.E.O.*.S.S.b.@. . .| n. .8XN.VXE.] '.sXAX] I.-XqXV                         ",
"            . 6 (.0X_ v.t.} a.J.' ..J.4.*.C.KXHXU.*.w.k.@.E.S.C.b.<.,. .V.s.| &.oXOX#X{ '.'.A.].jX$X-XS .                       ",
"            = 8 - FX7._ } n./.G.G.S.Q.S.S.s.S./.oX .<.@.:./.C.Q.GXl.@.&.w.T.V.k.w.w.@.3.Z.AXA.Z.vX$XXX6 .                       ",
"            , v - DXW.&.m.Q.&X&XgXHXbX&XQ.s.s.G.y.J.V.k.k./.nXMXxXaXt.} | l.l.w.t.*.&.%.2.+.].8.vX{.& 6 .                       ",
"            9 b *XqX+Xe.MXJXJXJXKXLXQ.bXnXFXGXn.w.6XfXNXGXuXUX6.p 1 L lXlXLXnXQ.C.} O.,.O.:.] A.CX[.+XZ O                       ",
"            J B.1XIXH.o.o.L.6.zXX._.A r A H.+ ) H G p y r D : > 4 q * > D G xXxXMXE.l.t.} | y.+.SX1X2XS O                       ",
"            @ [.4Xi.L.6.o.o.zXy R 3 4 = 7 # # 4 7 7 * * q o             q 4 0 X : z Y T E.E.hXfX& [.+Xf o                       ",
"          . V 4X$.^.p n : > # * O                                               . O = , @ r ; $.p.1X{.k x                       ",
"          . % 3 > N 7 q                                                                   q # X w y & k h                       ",
"                                                                                                o * 9 g o                       ",
"                                                                                                                                "
};
