/* XPM */
static char *_826b47c0af24832e0b5fba51e2a234aIdOdb5cA5N5Y93My[] = {
/* columns rows colors chars-per-pixel */
"64 64 232 2 ",
"   c #020108",
".  c #0A0211",
"X  c #3C0D15",
"o  c #3E0E18",
"O  c #2A191B",
"+  c #3C1215",
"@  c #3C1419",
"#  c #1D241E",
"$  c #2E1422",
"%  c #2B1C21",
"&  c #321A25",
"*  c #361E2A",
"=  c #1B272D",
"-  c #282728",
";  c #34242B",
":  c #37252A",
">  c #27302F",
",  c #36372F",
"<  c #232C36",
"1  c #2D2B32",
"2  c #3D2531",
"3  c #342B35",
"4  c #352A37",
"5  c #3A2B32",
"6  c #2B3334",
"7  c #2C363C",
"8  c #333235",
"9  c #34343B",
"0  c #3A353A",
"q  c #343C3A",
"w  c #401519",
"e  c #431A1D",
"r  c #471D21",
"t  c #4A282A",
"y  c #402A36",
"u  c #442D39",
"i  c #443738",
"p  c #35433B",
"a  c #39443B",
"s  c #43433C",
"d  c #2E3943",
"f  c #3C3542",
"g  c #343944",
"h  c #363A44",
"j  c #3C3B45",
"k  c #3D3D49",
"l  c #433542",
"z  c #423D46",
"x  c #433E4A",
"c  c #3C4343",
"v  c #39464A",
"b  c #3C4B56",
"n  c #355158",
"m  c #3A5865",
"M  c #3B636F",
"N  c #43424C",
"B  c #49434C",
"V  c #464A48",
"C  c #49534D",
"Z  c #50534E",
"A  c #464551",
"S  c #4A4652",
"D  c #444A54",
"F  c #4B4B54",
"G  c #4A4E59",
"H  c #524D56",
"J  c #4C5454",
"K  c #4A5459",
"L  c #54545D",
"P  c #565A59",
"I  c #4A6555",
"U  c #5A645C",
"Y  c #59725F",
"T  c #64705F",
"R  c #4D5A64",
"E  c #595662",
"W  c #555D62",
"Q  c #5B5B67",
"!  c #5C5C64",
"~  c #615D6A",
"^  c #48656D",
"/  c #566667",
"(  c #5C6562",
")  c #5C626C",
"_  c #5D7362",
"`  c #466973",
"'  c #596A74",
"]  c #4D757E",
"[  c #57757C",
"{  c #5C737D",
"}  c #656666",
"|  c #636B65",
" . c #63636C",
".. c #6B6669",
"X. c #646C6C",
"o. c #6A6B6B",
"O. c #657467",
"+. c #65726B",
"@. c #6B736D",
"#. c #676875",
"$. c #6C6B74",
"%. c #726F77",
"&. c #6C7371",
"*. c #63747C",
"=. c #6C747B",
"-. c #707272",
";. c gray45",
":. c #767676",
">. c #737A74",
",. c #73727C",
"<. c #79767D",
"1. c #757C7A",
"2. c #7D7D7D",
"3. c #7F7F7F",
"4. c #658071",
"5. c #79827D",
"6. c #467684",
"7. c #547A84",
"8. c #597B87",
"9. c #667B86",
"0. c #737C85",
"q. c #797B85",
"w. c #827C88",
"e. c #5D848C",
"r. c #5C8493",
"t. c #5B8893",
"y. c #63838C",
"u. c #68838B",
"i. c #7B8383",
"p. c #79858C",
"a. c #678A96",
"s. c #768B96",
"d. c #64919A",
"f. c #6C939D",
"g. c #73939D",
"h. c #77979C",
"j. c #7D939C",
"k. c #6C95A2",
"l. c #6E99A5",
"z. c #7395A3",
"x. c #7B96A1",
"c. c #749BA4",
"v. c #7B9BA4",
"b. c #759DA9",
"n. c #7C9DAA",
"m. c #7DA2AB",
"M. c #7AA4A8",
"N. c #7EA5B1",
"B. c #808080",
"V. c gray51",
"C. c #848985",
"Z. c #84838B",
"A. c #838B8C",
"S. c #8D8D8D",
"D. c #8E8E8E",
"F. c #8C928D",
"G. c #848C97",
"H. c #8D8B92",
"J. c #908D96",
"K. c #8A939A",
"L. c #909091",
"P. c #96999C",
"I. c #8699A6",
"U. c #829CA5",
"Y. c #8B9CA5",
"T. c #829EAA",
"R. c #989CA5",
"E. c #A39BA4",
"W. c #83A2AC",
"Q. c #8BA3AC",
"!. c #81A9AB",
"~. c #96A4AC",
"^. c #84A5B3",
"/. c #8BA6B2",
"(. c #85AAB3",
"). c #8BABB4",
"_. c #86ADB9",
"`. c #8CADBA",
"'. c #92ABB5",
"]. c #97AAB5",
"[. c #93AEBA",
"{. c #9BAEBB",
"}. c #8AB0B8",
"|. c #8DB1BB",
" X c #94B2BD",
".X c #9BB3BD",
"XX c #96B8BB",
"oX c #A7ABB0",
"OX c #A3ACB5",
"+X c #B3ADB5",
"@X c #A2B4BE",
"#X c #A9B7BA",
"$X c #B0C0BD",
"%X c #8DB3C1",
"&X c #95B5C2",
"*X c #9BB6C2",
"=X c #95BAC7",
"-X c #9CBAC4",
";X c #9DBEC8",
":X c #A3B6C3",
">X c #A2BBC5",
",X c #AABAC5",
"<X c #A3BDC9",
"1X c #AABECB",
"2X c #B4BCC6",
"3X c #9CC1C9",
"4X c #9DC0D3",
"5X c #A6C2C8",
"6X c #A4C1CB",
"7X c #ABC2CD",
"8X c #B7C5C9",
"9X c #B2C3CC",
"0X c #ACC5D1",
"qX c #A8C9D5",
"wX c #ACC9D4",
"eX c #B3C5D3",
"rX c #BCC6D2",
"tX c #B4CAD5",
"yX c #BCCBD4",
"uX c #B5CCD9",
"iX c #BBCDDB",
"pX c #B5D2DC",
"aX c #BBD2DC",
"sX c #BED5E1",
"dX c #C4D4DC",
"fX c #CAD2DB",
"gX c #C8D6DD",
"hX c #C7D9E3",
"jX c #D6DFEA",
"kX c #CCE1E4",
"lX c #D3E2E8",
"zX c #E1E5F0",
/* pixels */
"3.3.B.3.:.:.:.:.:.:.:.:.:.:.:.:.:.:.:.:.3.B.B.B.S.S.S.S.S.S.S.S.o.o.o.o.S.S.L.S.B.3.B.3.:.-.-.-.-.-.-.-.-.-.-.-.-.-.-.:.3.B.B.B.",
"3.3.B.3.:.:.:.:.:.:.:.:.:.:.:.:.:.:.:.:.3.B.3.B.S.S.S.S.S.S.S.S.o.o.o.o.S.L.S.S.B.3.B.3.:.-.-.-.-.-.-.-.-.-.-.-.-.-.-.:.3.B.B.B.",
"3.3.B.3.:.:.:.:.:.:.-.-.-.:.:.:.:.:.&.@.&.>.>.1.B.C.C.C.5.@.@.@.( ..} o.S.S.S.S.B.3.B.3.:.-.-.-.-.-.-.-.;.;.-.@.-.-.-.:.3.B.B.B.",
"3.3.B.3.:.:.:.:.:.o.U ( @.:.-.@.&.-.@.V p p q q 6 a c c 6 > > > 6 6 q q c V v c p p a V C C V a a p a p p c V C O.:.:.:.3.3.3.3.",
"3.3.B.5.3.3.3., - - - - > 0 V Z V } } c > - - # - - 1 3 8 1 1 1 - 1 6 6 9 j q 8 q 9 9 9 q 6 6 > - # # # # - 8 a O.3.3.3.:.:.:.:.",
"3.3.B.3.3.3.a , O % % % % - 5 i i B i - O O % : % % ; : 5 5 : : ; : : : 5 5 5 5 5 5 : ; ; ; - - : O O O O : i s O.B.3.3.:.-.-.-.",
"3.3.B.5.3.3.V - O O $ $ $ & * : r e @ @ @ + @ + @ @ @ @ e e e w e e e r r r r r r e w @ + + @ w X X X X o r t i O.3.3.3.:.-.-.-.",
"3.3.B.B.3.3.:.O O O @ $ $ $ $ @ + + + + + + + + + + + + + + o + + + + w + X X + + + + + + X X X X X X X X + @ O T 3.3.3.:.:.:.:.",
"3.3.B.3.-.o.o.: & $ $ & $ & $ 2 : : * * * * * * : : 2 2 2 2 2 2 u y y y u y y y y 5 2 2 2 : : ; - : ; : : 5 i , _ 3.3.B.3.3.3.3.",
"3.3.B.3.o.} } , i * : 2 : 5 l 5 3 3 3 3 3 3 3 3 3 3 3 0 l l l l 0 x z B B B z S B x z f f 9 9 9 8 8 q 0 8 V ..U Y 3.3.B.B.B.B.B.",
"3.3.B.3.o.} } P i 3 1 1 1 - 3 8 1 1 1 1 1 3 8 9 9 9 9 f j z x z z B   B B H   B z z f 0 9 8 9 9 f 9 3 0 0 i H P _ 3.3.B.B.B.B.3.",
"3.3.B.3.o.o.o.o.1.B N N c c N j j j j j j j k k S B B S S F F F   L     H L   B B B B N x x N N f S x f f x ..<.I 3.3.B.B.B.B.B.",
"3.3.B.B.B.B.B.C.P.X.X.) $.$. .&.$.$.$.$.$.%.,.,.,.,.,.,.,.,.,.<.q.,.<.%.<.$.,.%.$.$.$.$.$.$.$.%.%.#.#.%. .$.J.P.C _ 1.1.3.i.w.B.",
"3.3.B.B.S.L.L.A.i.X.K G   L L H E E E E E E Q Q Q Q ~ ~ ~ ~  . .$.$. . . . .Q Q  . . . . . .#.$.#.$. . .) #.Z.A.I O.-.:.3.i.B.B.",
"3.3.B.B.S.S.S.C.-.F N F A A S L H G S A x k j j f j j j j k k x x x A N j j N k k k k k k N A A . S E D D J ( ( I :.:.:.3.B.B.B.",
"3.3.B.B.S.S.S.B.} o.A j A k k x k k k k k k k N k k k k k k k j j x N x A N N N N N N A A A A A x B x N 7 6 J ( Y :.:.:.3.3.3.3.",
"3.3.B.B.S.S.S.1.} P.$.h 7 h h v h D h k h h N h j k h k k j j x z N N N N N G A G F N N A E A N j j 9 3 N ..&._ _ S.S.B.-.o.o.o.",
"3.3.B.B.S.S.S.1...S.J.' K ' *.' 9.p.*.d   ) D R ' D v v   G F S N j j h k A h A h j k j x F j 9 k h k H ~ Z.5.v +.S.L.S.o.o.o.o.",
"3.3.B.B.S.S.S.S...q.~.Y.I.s.s.j.g.g.W.' T.U.{ u.{ 8.^ ^ j.Q.*.b h h 7 d D G v v D D F G A N j N D G Q <.Z.L.1.I S.S.L.S.o.o.o.o.",
"3.3.3.3.S.S.S.S.5.S.~.Y..X'.U.W.c.m.c.m.m.7.M 7.a.e.f.f.g.a.h.u.d 7 < ) G.K.Y.G.=.) G D D F A F L $.w.E.+XP.+.I S.S.S.B.o.o.o.o.",
"1.1.1.:.1.3.3.3.1.A.K.~.>X-X`.n.c.m.|.|.m.` M b.b.7.t.e.e.e.y.x./ d b Y.1X.X1X@X].Y.p.W v h B L ,.H.oX+X+XF.+.+.:.-.-.:.1.1.1.1.",
"-.:.:.:.:.:.:.:.>.i.p.Y.7X6X`.n.^.N.b._.&Xk.r.|._.d.t.] r.a.b.).x.R 9..X<X6X>X>X/.Q.I.s.) h D ,.R.oX+XE.S.X.U &.o.o.o.o.3.B.B.3.",
"-.-.:.:.:.:.:.:.-.p.0.*.].>X&X^.f.f.a.^.^.^.%Xk.^._.r.8.7.a.n.^.[.j.[. XQ. X`.W. XW.Q.].K.R ) G.R.R.H.H.-.U v -.o.o.o.o.3.B.3.3.",
":.:.:.:.:.:.:.:.1.X.0.#.K.'.*X^.n.z.8.z.z.&X&X^.`.^.l.r.8.N.n.W.*X*X6X Xv.W.(.m.(.). X].j.) 0.oXP.H.H.P.P U @.-.o.o.o.o.3.3.3.3.",
"C.S.S.S.S.S.S.S.5.A.G.0.R.,X'.&X`.a.8.z.z._._._._.d.t.l.k.M.N.^. X<X X Xn.v.(.M.c.(.6X.X.X~.G.p.J.S.H.L.B.@.B.S.B.B.B.B.o.o.o.o.",
"S.S.S.S.S.S.S.S.C.A.<.E 0.OX:X*X^.z.e.c.n.n.N.c.k.d.t.t.k.b.N.}. X`.W. XW.(.qX=X(.|. XXX<X7X@X=.K E F P C.F.S.S.S.L.L.S.o.} } o.",
"S.S.S.S.S.S.S.S.B.X.! H $.OX9X*Xv.g.m.;X|.f.z.a.f.d.d.t.f.b.m.c.e.).&X<X Xn.-X3X(.c.f._.*X.XeX,X=.D E X.&.| S.S.S.S.L.S.o.o.o.o.",
"S.S.S.S.S.S.S.S.B.:.P $.q.K.@X1XW.c.m.&X6Xn.y.f.c.t.f.l.f.c.f.` ]  X6X>X*XT. X-X(.c.m.W.[.*X:XiX8XK.1. .@.+.S.S.S.S.S.B.o.o.o.o.",
"B.B.B.B.B.B.B.B.B.>...<.Z.G.~.]./.v.[.wX7X XW.m.g.c.(.n.` m ` ` 7./.<X>X[.'.7X-X`.c.(.`.[.'.I.:XrX~.W  .&.@.1.1.B.B.B.B.3.1.1.1.",
"B.3.3.3.3.3.3.3.3.-.3.B.Z.G.s.9.a. X*X7X0X XW.v.g.n.m._.v.7.n n 8.W.<X*X*X<X7X.X`.(. X-X&X6X<X{.{.@XR.A.( U -.:.3.3.3.3.B.3.3.3.",
"3.3.3.3.3.3.3.3.3.B.F.R.P.K.Y.h.U. X*X-X<X*X Xa.f.v.m.=XqX^.8.a.W.-X*Xs.I.1X0X{.[.n.v.qXpX0X1X{.,X7X8XK.&.J -.:.3.3.3.B.3.3.3.3.",
"3.3.3.3.3.B.B.B.B.B.R.#XR.OX@XU.v.W.-X*X6X*X/.g.a.c.(.;XqX^.n.*X'.6X<X{ b ~.tX:XQ.)./.6XwX6X<XtXtX,XOXi.+.&.:.:.B.B.B.B.B.B.B.B.",
"3.3.3.3.S.S.S.S.S.S.P.OX,X9X].g.h.`.>X6X6XW.[.Q.x.).-X0XwX X7X.X.X1X,X9.b 9.tXtX@X'.'..X/.-X0X6X>X@XR.p.5.S.S.S.S.S.S.S.S.S.S.S.",
"3.3.3.B.S.L.S.S.S.S.#X#X9X1XQ.g.v. X*X6X'.v.>X>X>X X.X0XhXuXeX7X@X.X,XQ.*.{ ].tX,X.X'.].)././.*X*XY.p.5.4.L.L.L.L.L.L.S.S.S.L.L.",
"3.3.3.B.S.S.S.S.S.S.$X#XQ..XQ.g.v. X*X[.a.U.<X7X7XQ..X7X7XiXhX,X,X,X.XU.j.'.7X1X1X7X,X1X<X XW.'.'.9.L X.5.S.S.S.S.S.S.S.S.S.S.S.",
"3.3.3.B.S.S.S.S.S.L.#XOXp.s.x.g.T. X<Xg.9..X*X:XeX7X7X>X>XtXuXeX,X6X[.U.Q.-XpXwX>X6X6X6X7XuXtX7X{.0.W | S.S.S.S.S.S.S.S.S.S.S.S.",
"3.3.3.3.1.1.:.:.:.C.8XOXY.].y.^ s.W./.8.s.uXeX1XuXtX<X>X1X1XeXtX7X6X XW.'..X0XwX*X>X*X.X7XhXhXtX1X~.i.| 1.1.1.1.S.S.S.S.B.B.B.B.",
"3.3.3.3.:.-.-.-.-.1.P.K.Q.7X.X8.a.x.s.9./.uXhXuXsXuXtXeX0XtXhXaXuX6X).v.).-XqX-X X<X X'.eXiXtXrXdX8XR.o.:.:.-.1.S.S.S.S.B.3.3.3.",
"3.3.3.3.:.:.:.:.-.&.A.0.:XaX X X/.).U.T.:X1XiXuXaXuXtX<XuXiXuXiXwX`.v.v.m.(.3X3X X*X).W.<XtXiXhXyX2XJ.} :.:.-.1.S.S.F.S.B.3.3.3.",
"3.3.3.3.:.:.:.:.:.( ( 0.9XtX[.`.`./.'.*X>X>X0XaXaXW..X<XuXaXaXiXtX'.v.x.v.(.3X&X X X X)..X1XhXdXgXoXC.| :.:.:.1.S.S.S.S.B.3.3.3.",
"3.3.3.3.3.1.3.3.5.( J 0.tX7X_.n.W./. X*XwXwX6X)./.x.Q.-X'.*XsXtX].u.g.s.v.^.3X X_._.W.T.*XuXiXdXdX#Xi.>.3.3.3.3.B.B.B.B.3.3.3.3.",
"3.3.3.3.3.3.3.B.C.X.) p.tX7Xn.m.(.(.|.6XpXpX-X[.v.h. X Xv. X0XtXY.{ u.x.[. XW.W._.W.W.W.'.7XhXdXdXoX1.1.3.3.3.3.3.3.3.3.3.3.3.3.",
"3.3.3.3.3.3.3.3.i.X.$.K.9X Xc.(.(.). X6XpX0X6X;X).W.*X;X*X6X-X*X@X.X*Xx.y.a.8.z.-X).).*X'.>XhXyXp.$.! >.3.3.3.3.3.3.3.3.3.3.3.3.",
"3.3.3.3.3.3.3.B.5.( L s.9X[.n.c.W. X X0X-X XwX0X6X-X;X6X;X X/.U.1XiX0Xx.a.).x.g.&X-X-X.X/.,XaX~.R K P 1.B.B.B.B.B.B.B.B.3.3.3.3.",
"o.o.o.-.3.3.3.3.1.W D p.1XW.f.f.c.|.&XwXv.[.<X-X6X-X Xn.`.)./.T..X7X0X.X).-X<X*X-X-X-X7X>X.X>X~.R L o.>.S.S.S.S.S.S.S.B.o.o.o.o.",
"o.o.o.o.1.3.3.3.( F L G.:Xg.8.d.c.n.0X-X/.&X*X X XW.`.T.*X<X[.-XtX7X<X<X*X.X6X<X*X.X.X7X7X].].].R L $.-.S.L.L.L.L.L.L.S.o.} } } ",
"o.o.} o.1.3.q.@.U D D 0..Xx.y.d.W.W.<X).>X.X>X*X).).6X<X<X*XW.7X7X6X6X6X>X>X>X<X>XeXeX7XyXdXyX2XQ L $.>.F.L.L.L.L.L.L.B.o.o.....",
"o.o.} o.1.3.3.@.( W D *.Q.g.^.m.`.6XT.).*X[.*X<X*X<X<X6X>X1X{.0X0X7X7X6X7XtX*X*X>X:X,X7XgXlXdXyX) F } @.S.S.S.S.S.S.S.B.o.o.o.o.",
"1.1.1.1.:.1.:.+.( W R j.x.u.a.`.qX^.a. X=X X*X[.*X1XeX1XeXeX1X1X0X7X6X6XwX<X^. X*X*X>X.XhXkXdX8X0.J ! @.1.1.1.1.1.1.1.1.3.3.3.3.",
"B.B.B.3.:.:.:.@.&.W *.>X-Xg.9.W.6X).n._.`.;X6X'.>X>X1X1XeXeX1X:X7X0X<X<X<Xh.W.&X-X*X.X.XgXlXlXhXOXW J @.-.-.-.-.-.-.-.:.3.3.3.3.",
"3.3.B.3.:.:.:.>.@.P p.6X`.f.d.|.-X[.<X6X>X0XpXwXuXwX7X6X-X-X-X.X1X7X,X6X'.[ c.*X-X XW.].hXlXzXfXfX,.P -.:.:.:.:.:.:.:.:.3.3.3.3.",
"3.3.B.3.1.:.:.>.J K j.>Xc.a.k._.[.[.7XwXwX6X6X7X6X6XXX'.XXXXXX3X>X#X].].v.u.g.W.v.W.Q.@XgXhXjXfX2XK. .-.:.:.:.:.1.1.:.1.3.w.B.B.",
"3.3.B.B.S.S.S.1.( / j. Xa.y.n.).[.>X1X0XpX.XW.v.v.).v.v.XXXXM.M.W. X'.Q.U.W.x.{ s.j.j.@XhXlXlXrX2XP.X.1.3.3.3.3.S.S.S.S.S.S.S.S.",
"3.3.B.B.S.L.S.>.J *.].6Xn.z.).`.*X6X<XwXwXg.` M a./.v.v. X!.y.e.h.|. X_.`.v./.u.m ' j.9XlXjXgX8X2XR.i.i.3.3.3.B.S.S.S.L.L.L.L.L.",
"3.3.B.3.S.L.C.o.K 0.:X>Xn.m.`.&X4X=X%X=X%Xr.m m f.`.^./. Xz.y.y.c._.%X_.N.a._.&Xv.v.Q.7XhXlXgXfX2XR.P.C.B.3.3.B.S.S.S.S.L.L.L.L.",
"3.3.B.B.S.S.>.-. .0.:X<X).b.d.b.l.r.r.r.r.k.r.d.n.&X). X&Xg.9.y.r.b.=X%XN.M.b.(.(.W.'.6XaXhXfXfX2XR.J.@.@.3.3.3.S.S.S.S.S.S.S.S.",
"3.3.B.B.B.B.@.>.! ) {.*Xg.8.7.7.M M 6.6.r.d.k.z.`. XW././.s.9.m n s.v./.).v.m.m.m.(.*X*X>XaXaXyX2XR.w.&.X.:.:.:.1.1.:.1.B.B.B.B.",
"3.3.B.B.B.B.| 5.=.q.G.{ m ^ ^ m n 7.8.7.7.8.y.v.W.Q.{ R u.*.v < < / *./ ' [ { y.a.|.`.;X-X[.wXhX#Xq.S.1.U :.:.:.:.:.:.:.3.B.B.B.",
"3.3.B.B.B.B.( &.,.Z.D < < = < h v b D K b J   $./ c = 6 J 6 N C J C ( V q c v v b s.Q.W.W.^. X0X2Xq.H.S.( :.:.:.:.:.:.:.3.B.B.B.",
"3.3.3.3.3.3.>.C.<.z - - 7 6 6 q q C J &.J J J J C V C P V :.:.:.3.3.3.3.3.J J v 7 / *.9.x.x.s.9.p.S.S.B.@.:.:.:.:.:.:.:.3.B.B.B.",
":.:.:.:.:.@.5.-.5 O - - c q C c } o.o.o.B.S.S.S.S.S.S.S.3.3.3.3.3.3.3.3.3.3.3.3.3.X.=.&.&.L h 9 h 1.L.C.1.:.:.:.3.3.3.3.3.3.3.3.",
":.-.-.:.:.| O.P s , s P @.:.-.-.o.....o.B.L.S.S.S.L.L.S.B.3.3.3.3.q.3.3.3.3.3.3.3.5.5.3.:.} J V 6 q 1.C.>.:.:.1.3.3.3.3.3.3.3.3.",
"-.-.-.:.:.:.:.:.:.-.-.-.:.:.:.-.o.o.o.o.B.S.S.F.S.S.L.S.B.3.3.3.3.3.3.3.3.3.3.3.5.5.5.3.:.:.:.-.-.C | 5.:.:.:.1.3.B.3.3.3.3.3.3.",
":.:.:.:.:.:.-.:.:.-.-.-.:.:.:.-.o.o.o.o.B.S.S.F.S.S.L.S.B.3.3.3.3.3.3.3.3.3.3.3.5.3.5.3.1.:.:.:.:.-.@.-.:.:.:.1.3.B.3.3.3.3.3.3."
};
