/* XPM */
static char *result[] = {
/* columns rows colors chars-per-pixel */
"64 64 50 1 ",
"  c gray38",
". c #626262",
"X c gray39",
"o c #646464",
"O c #656565",
"+ c gray40",
"@ c #676767",
"# c #686868",
"$ c DimGray",
"% c #6A6A6A",
"& c gray42",
"* c #6C6C6C",
"= c #6D6D6D",
"- c gray43",
"; c #6F6F6F",
": c gray44",
"> c #717171",
", c #727272",
"< c gray45",
"1 c #747474",
"2 c gray46",
"3 c #767676",
"4 c #777777",
"5 c gray47",
"6 c #797979",
"7 c gray48",
"8 c #7B7B7B",
"9 c #7C7C7C",
"0 c gray49",
"q c #7E7E7E",
"w c gray50",
"e c #808080",
"r c #818181",
"t c gray51",
"y c #838383",
"u c #848484",
"i c gray53",
"p c #888888",
"a c #898989",
"s c gray54",
"d c #8B8B8B",
"f c gray55",
"g c #8D8D8D",
"h c #8E8E8E",
"j c gray56",
"k c #909090",
"l c gray57",
"z c #929292",
"x c #939393",
"c c gray58",
/* pixels */
"ewee<3333333333333319eeehhjjjjjj@@@%djkjwweq3<<<<<<<<<<<<<<2weee",
"ewer<2222222233333310wwwghhjjjjj###@fjjjwweq3<<<<<<<<<<<<<<2weee",
"ewer<1111111133333310wwwghhjjjjj####gjjjwweq3<<<<<<<<<<<<<<2weee",
"ewew122222222333333;twwwpkkkkkkkO%#+dkkkeqqw>,,<<<<<,,,,,,<1ewwe",
"eweq9000fffffggggggjjfff41111111-<>;xkkjjgfgfdss&&&@9qqqqqqw1112",
"ewewwqqqhkkkkkkkkkkkkkkk32<<<<<<,11>hjjkkjhjjjjj%#+&weeeewwr<<<<",
"ewewwqqqhkkkkkkkkkkkkkkk32<<<<<<<11>hjjkkjhjjjjj%#+&wwwwwwwr<<<<",
"ewewewwwgkkkkkkkkkkkkkkk32111111111>hjjkkjjjjjjj%#+%qwwwwwwr<<<<",
"ewe0&#%&36666666*%%%<44323333333fgha3345eeeeeeeeew09jdddwwwewq00",
"ewe9$+++>111111,&#+$,<<133333333fghf9444reewwwwwwwwqljjjwwweeeee",
"ewew@+++>111111<%###:<<133333333gjjg2111wwqwwwwwwww0hjjjwwweeeee",
"ewew@$$$1111111<%$%#>,231<<<<<11lljs<<<1ewyqqqqqqqq8jjlkwqqweeee",
"ewewisss99999999989w*&$#000tfggfrrre0099,7233333333222325557qwee",
"ewewgjjjwqqqqwwwwwwq&+++0wwthkkk0wwwwwwq1313311111111111111<weee",
"eweqgjjjwqqqqwwwwwwq&+++0wwthjjjwwwwwwwq1313311111111111111<weee",
"eweejjjjwqqqqwwwwwwq*+++0wwthjjjwwwwwwq013133111111111111111weee",
"eweejjjjjhfd5<<<<<<1<,,,1112244433333344hdgddssssssssssssssf=$$$",
"eweejjjjjjjj3<<<<<<111111111133333333333fjkkkjjjjjjjjjjjjjjd-$$$",
"eweejjjjjjjj3111111111111111111111111111hkkkkjjjjjjjjjjjjjjf$$$$",
"eww5djjjlljl2222222211111111111122213111jkkkjhhjjjjjjjjllzzhO.O$",
"555<3455qwerq99999973111111111110007####yuuyyree22222221:--*e0qq",
"<<111111wwweewwwwwww<11111111111wwwr#+++qwwwweee2111111<$$$=wewq",
"<<111111wwweewwwwwww<11111111111wwwr#+++qwwwweee2111111,$##*qwwq",
"<<111111weeeewwwwwwe<11111111111wwwr####weeeeeee2111111,###*qwwq",
"hghhhhhhweeeeeeeeeer2333jjjjjjjjwwwwwwwwwwwwwwwejgsfjjjhdssu$$%*",
"hghhhhhheeeeeeeeeeer2333jjjjjjjjwwwwwwwwwwwwwwwejjjjjjjjjjjj&###",
"hhjjjjjjeeeeeeeeeeer2333jjjjjjjjwwwwwwwwwwwwwwwejjjjjjjjjjjk+$$$",
"jhzjjjjjeeeeeeeeeeeq3333lgjjjjjjyew0wrrrewwwwweejzlllllljjjf OO+",
"eeqqwwwwweer2<<<<<<23333;,,,,,,,,:,3#ooo<<<<<<11<,<<<<<<eeewq000",
"rqqqqqqqwwe0<11111111333111111111113@+++3333331<1<<<<<<<wqqwwqq0",
"qqqqqwwwwwe0<11<<<<<<233111111111112@+++222222<<11<<<<<<wwwewqq0",
"qqqqweeweee0<111>>>>>33332111111111,++++>>>>>><<22<<<<<<wwweeqqq",
"qqq0hjjjjjjh#%$@kzzc1123wweeeeeeeeeqhhjkkkkkkkkkkkkkkkkkkkkjjjjj",
"qqqekjjjjjjh#$#+jjkg2123wweeeeeeeeeqhhjkkkkkkkkkkkkkkkkkkkkjjjjj",
"qqqekjjjjjjh####hgjj3123wweeeeeeeeeqhhhjjjjjjjjjjjjjjjjjjjjjjjjj",
"qqqrhllllllh%OOOjkzc1<11ewerrwwetyyelkjjjjjklllllllllllljhhhllzz",
"qqqr4::::::<<55531,>-<<112129www###*000qqqq8,,,,,,,,,,,,kghkueee",
"qqqe111111111332<<<<<<<1<<11qewq++#+wwqqqqqe2111111111<1zghjqwwq",
"qqqe111111111232<<<<<<<<<<11qwwq++#+wwqqwwwe2111111111<1jfhhqqqq",
"qqqw2111<<<1211311111,,,,<12qwww###@wwqwweew3,,,,,<<1223fhkgqqqq",
"qqqqqqqqjjjz13111112jzllkkkk6>>,####>244kkkkkjjjjjjfqwqqqqqqqqqq",
"qqqqqqqqhjjg:3111113fhhkkkkk52<<###$><<<kkkkkjjjjjjj6wqqqqqqqqqq",
"qqqqqqqqhjjg<311111<jjjkkkkx2311###$>111kkkkkjjjjjjgwwwwwwwwwwwq",
"reerwqqqhjkz2111111<jjklllkz<<<<#&#+-111hlkjjklllllfeeeeewwwreee",
"%%%#wwwwwwqw0eee111<trrttttu0000zxxdxkkkq0qwq000000udgggghhgX%%%",
"$$$$0wwwwwwwwwww111<0qqwwwwwwwwwhkkjjjjjqwwwwwwwwwwejkkkkklh@###",
"$$$$0wwwwwwwwwww111<0qqwwwwwwwwwjjkjjjjjqeeeeeeeeeerlkkkkkkg####",
"+oO$8qweeeeeewqq311<0ewwwweeeeeehhjjjjjjqw00qqwwwwwrlkkkkkkhX###",
"qww0331<<<<<<123111<111111<<<<<<hhjjjjjj3<111111111342222222wree",
"eeeq321<<<<<<<<<111111111<<<<<<<hjjjjjjj5311111111111<<<<<<<wqq0",
"ewe01111111111111111111111111111jjjjjjjj411111111111111111130qq0",
"ewee1<<<<<<<<111111111111122<111ghhhhhhh321<111<<<12222222<68qqq",
"ewe7jllllllllzzzzzzzzzzzewqe31111><<<<<<+#$*,111ewq00000hklkkzzl",
"ewe8jkjjjjjjjjjjjjjjjjjjrqwq111133333333$#$%:,<1ewwwwwwwjjjkkkkk",
"ewe9hkjjjjjjjjjjjjjjjjjjrqwq111133333333###*<<<1wwwwqwwwjjjkkkkk",
"eweqgjkllllfghjjjjjjjjjje0q9111<,,<<<<<<+++*1<11qqwwwwwwkkkghkll",
"ewewteeeeeew11111111111133321111wqqqqqqqsjjghhhhqqwq82112334ewee",
"eweeeewwwwwr<1111111111133321111wwwwwwwwjjjjjjjjwww01311333<eeee",
"eweeeewwwwwr<1111111111133321111wwwwwwwwjjjjjjjjwwww2333333<weee",
"qwweeewwwwww<1111111<<<<2222,111wwwwwwwwhghkhhhhw00033332222qwwe",
"21<<<<,,,,,1<111@#%+fjjjjhhz000qqwwwwwwww0w92433<<133333wwwqqwwq",
"3,<1111111111111###*djjjjjkfqqqqwwwwwwwwwwwq431<<<<13333ewwwwwwq",
"<,<1111111111111###*fjjjjjkfqqqqwwwwwwwwwwwq431<<<133333ewwwwwwq",
"2211111111111111$##*fjjjjjkfqqqqwwwwwwwwwwwq431111133333ewwwwwwq"
};
