/* XPM */
static char *a02acbb56a394bf0ff9e8b972a1e5fe5ND0MWGT8ticuNCGV[] = {
/* columns rows colors chars-per-pixel */
"64 64 38 1 ",
"  c #232323",
". c #262324",
"X c #232424",
"o c gray14",
"O c #2E2B2C",
"+ c #2B2D2C",
"@ c #2D2D2D",
"# c #302E2F",
"$ c #373737",
"% c #393736",
"& c #383837",
"* c #38373A",
"= c gray22",
"- c #41423F",
"; c #3F4140",
": c #414141",
"> c #444242",
", c #424244",
"< c #474C4B",
"1 c #4B4B4B",
"2 c #4A4B4E",
"3 c #4C4B4E",
"4 c #4A4C4C",
"5 c #4A4C4E",
"6 c #4C4C4C",
"7 c #4B4B50",
"8 c #4A4C50",
"9 c gray34",
"0 c #595757",
"q c #575857",
"w c #585956",
"e c #575758",
"r c #5A575B",
"t c #575858",
"y c #5A5A5A",
"u c gray43",
"i c #6F6F6F",
"p c gray44",
/* pixels */
"yyyyuuuuuuuuuuuuuuuuuuuuuuuuuuuuuuuuuuuuuuuuuuuu9yyyyy99::::  oo",
"yyyyuuuuuuuuuuuuuuuuuuuuuuuuuuuuuuuuuuuuuuuuuuuu9yyyyy99::::  oo",
"yyyyuuuuuuuuuuuupuuuuuuuuuuuupuuuuuuuuuuuuuuuuuuyyyyyy99::::oooo",
"yyyyuuuuuuuuuuuuuuuuuuuuuuuuupuuuuuuuuuuuuuuuuuuyyyy9y99::::.Xoo",
"uuuuyyyyyyyy9eyyyyyy99yyy999yyyy6655qqyyyyyy99yyyyyy::::=**=oooo",
"uuuuyyyyyyyy9yyyyyyy99yyy999yyyy1555twyyyyyy99yyyyyy::::****.ooo",
"uuuuyyyyyy9999yyyyyy999yyy99yyyy2525q9wyyyyy999yyyyy::::***=oooo",
"uuuuyyyyyy0999yyyyyy999yyy99yyyy2222e9qyyyyy99yy99yy::::****.ooo",
"uuuuyyy99999wyyyyyyy66565665yyyyyyytwyyy99wyyyee1111::::::::o.oo",
"uuuuyyyy999999yyyyyy22525525ywyyyywyyyyy999yyyee2252::::::::oooo",
"uuuuyyyyyy999q9eyyyy88555552yyyyer99yeer99yyyyee8822::::::::oooo",
"uuuuyyyyyyyy9e9eeyyy355555529yyy999yyter99yyyy9e5552::::::::oooo",
"uuuu::::6255ywyt6623::::::::e999ywwq63552535ywye::::3523:-::oooo",
"uuuu::::5555yyyy2823--::::-:e999yyyq58552555yyyw:-::5555::::oooo",
"uuuu::::6252ywyy3222::::::::yy99yyyy55555555yyyy::::5555:-::oooo",
"uuuu::::6532yyyy2553::::::::yyywyyyy55555555yyyy::::5555::::oooo",
"uuuu===*0yyy::::****::::6662::::63255555;:::::::6555=***::::oooo",
"uuuu==**0yyy::::*%**::::2565::::58555555::::::::5555***&::::oooo",
"uuuu=***9yyy::::***$::::5555::::25555555::::::::5552**%%::::oooo",
"uupu=***ryyy::::**==::::5633::::55555553::>:::::6335**%%::::oooo",
"yyyy1522%***%&%*::::==**::::::::3555;:::&**=::::::-:=**%@@@@oooo",
"yyyy1555****%%%*::::=***>:::::::5555::::****::::::::=***@@@@oooo",
"yyyy2555&%**%%**::::=***::::::::3555::::****::::::::****@@@@oooo",
"yyyy2355*%******::::****::::::::3355::::****::::::::****@@@@oooo",
"$$=***=****%%%**==&=****=*==&&&&****%&==@##@**=====*@#@#====oooo",
"*%****%*****%%***%%%********%%%%**%*%%**@@@@********@@@@****.ooo",
"%%%*********%*****%%****************%***@@@@********@@@@****  oo",
"$$%***%%****%%****%%%***************%***@@@@%%******@@@@***=  oo",
"@@@@@@@@o.oo.o.o@@@@@@@@oo.o.o.oo.o.@@@@@@@@@@@@o.oooooo.o.X@@@@",
"@@@@@@@@ooooXoXo@@@@@@@@ooXoXooooXoX@@@@@@@@@@@@oXooooooXoX.@@@@",
"@@@@@@@@oooooooo@@@@@@@@oooooooooooo@@@@@@@@@@@@oooooooooooo@@@@",
"@@@@@@@@oooooooo@@@@@@@@oooooooooooo@@@@@@@@@@@@oooooooooooo@@@@",
"ppuuuuupyyy99999uuuuuuuuyyyyooooyyyyuuuuuuuuuuuuuuuuuuuuuuuuuuuu",
"uuuuuuuuyyyy9999uuuuuuuuyyyyooooyyyyuuuuuuuuuuuuuuuuuuuuuuuuuuuu",
"uuuuuuuuyyyyyy9yuuuuuuuuyyyyooooyyyyuuuuuuuuuuuuuuuuuuuuuuuuuuuu",
"uuuuuuuuyyyyyyyyuuuuuuuuyyyyooooyyyyuuuuuuuuuuuuuuuuuuuuuuuuuuuu",
"yyyy99yy6283yyyyyyy9::::====oooouuuuyyyyyy99yyyyyyy91656yyyyeyyy",
"yyyy99yy6255ywyyyyyq::::=***.Xoouuuuyyyyy999yyyyyyyq6222ywyyeyy9",
"yyyy999y5555e999yyyy::::*%%*oooouuuuyyyyyy99yyyyyyyy5512yyyye999",
"yyyy990y5552eq99yyyy::::=%%%.Xoouuuuyyyyyy99yyyyyyyy6522ywyyey99",
"yyyy12225555ywyyyyyy6353::::o.oouuuuyyyyyy999yyy::::yy9e99yyyy99",
"yyyy55555555yyyyyyyy2555::::oooouuuuyw9yyy9999yy::::yyyy99wyye99",
"yyyy35555555ywyyyytt2225::::oooouuuuyq9yyy99yyyy::::yyyy99yyyy99",
"9wyy55555555etytytyt2222::::oooouuuuyy99yy99yyyy::::yyyy99yyyy99",
"9999355555552522ttqtwywy****.Xoouuuuyyyr6535y9992353::::9yyyyyy9",
"9999555555555252erqqywyy%***oooouuuuyyyy5555y9992853::::eyyyyyyw",
"yy9r355555555555rrrryyww=***.Xoouuuuyyyy3555yy9e3552::::yyyyyyyy",
"yyyt522222222222rreryywy=***.Xoouuuuyyyy5555yeee2225-:::ywyyyyyy",
"1<55****::::::::6556yyyy=%**ooooyyyy1222;:::yy9e9eyy5533yyyyyy9e",
"5552***=>:::::::2553yyyy=***.Xooyyyy1222::::yyyy99yy5523ywyyyy99",
"5552=**=::::::::3553wyyy=*%%ooooyyyy5522::::yyyy99ey5552yyyyyee9",
"8752****>:::::::3352eyyy=**%.Xooyyyy5352::::yyyy99yy2552eq9eee99",
"&=**&%**=**$::::::::-:::=***ooooyyyy::::%$$$yyyw1123,,::3538--::",
"%*****%****%::::::::::::=***.Xooyyyy::::%%**yyyy3852::::3525::::",
"************::::::::::::$***.Xooy99y::::%%**yyww2555::::2552::::",
"*%%%*%%%****::::::::::::$***ooooe99y::::%%**ytwy3352::::2255::::",
"*******%%%%%***********%%%%%.Xoo$%%%***%%*%%***%*******%*%*%****",
"*%******%%%%************%%%%oooo*%%%****%%%%*=*%*%******%%%&****",
"****************************.Xoo**********%***************%%***=",
"%*****=*=*=**=*=%=****=*=***o.oo****=*=****=*=****=*=****=*=*=*=",
"OO@@@@@@@@@@@@@@@@@@@@@@ o.Xoooo.oo.X.oo@@@@@@@@@@@@@@@@@@@@@@@@",
"O+@@@@@@@@@@@@@@@@@@@@@@oooooooooXoXoooo@@@@@@@@@@@@@@@@@@@@@@@@",
"@@@@@@@@@@@@@@@@@@@@@@@@oooooooooooooooo@@@@@@@@@@@@@@@@@@@@@@@@",
"@@@@@@@@@@@@@@@@@@@@@@@@oooooooooooooooo@@@@@@@@@@@@@@@@@@@@@@@@"
};
