/* XPM */
static char *_d8e14dd8b824d83d35c60b277222bdf2zuQdWct4D7zk9Wf[] = {
/* columns rows colors chars-per-pixel */
"64 64 211 2 ",
"   c #04273A",
".  c #073146",
"X  c #0E3145",
"o  c #1B3444",
"O  c #15374A",
"+  c #163E55",
"@  c #233E4F",
"#  c #184053",
"$  c #15435B",
"%  c #2F424F",
"&  c #364A59",
"*  c #154A64",
"=  c #1B4B63",
"-  c #1B526C",
";  c #0C4F73",
":  c #1E5672",
">  c #1A5A7A",
",  c #24556E",
"<  c #2C576E",
"1  c #245A74",
"2  c #235D79",
"3  c #28607E",
"4  c #38647A",
"5  c #42525E",
"6  c #54585E",
"7  c #445866",
"8  c #446475",
"9  c #596974",
"0  c #676767",
"q  c #65696E",
"w  c #6B6B6B",
"e  c #686A70",
"r  c #697277",
"t  c #757575",
"y  c #777875",
"u  c #787A77",
"i  c #7D7D7D",
"p  c #7E817D",
"a  c #81827F",
"s  c #0D5A80",
"d  c #105B80",
"f  c #166288",
"g  c #046994",
"h  c #016D9C",
"j  c #136B96",
"k  c #176E97",
"l  c #04719E",
"z  c #0E739F",
"x  c #286583",
"c  c #2C6B8B",
"v  c #306C87",
"b  c #346C8A",
"n  c #34718F",
"m  c #266D92",
"M  c #3C6D90",
"N  c #297497",
"B  c #2B7498",
"V  c #377595",
"C  c #35799C",
"Z  c #3B7A99",
"A  c #1679A4",
"S  c #227CA5",
"D  c #237CA6",
"F  c #327EA4",
"G  c #397FA0",
"H  c #426D85",
"J  c #4A6C83",
"K  c #49748D",
"L  c #58758C",
"P  c #487A95",
"I  c #6F7F8D",
"U  c #7D7C80",
"Y  c #2F82A8",
"T  c #3C81A4",
"R  c #3485AC",
"E  c #3886AB",
"W  c #2987B1",
"Q  c #378BB4",
"!  c #3C94BB",
"~  c #5D8297",
"^  c #59819A",
"/  c #7F8281",
"(  c #78828C",
")  c #6A8394",
"_  c #7D8B98",
"`  c #4384A5",
"'  c #4A85A3",
"]  c #4487A9",
"[  c #4589AB",
"{  c #4A8BAC",
"}  c #578CAC",
"|  c #428DB3",
" . c #4F8FB2",
".. c #4391B5",
"X. c #4795BB",
"o. c #4C96BB",
"O. c #4D99BE",
"+. c #5493B4",
"@. c #559BBE",
"#. c #5B9ABD",
"$. c #7191A7",
"%. c #7F91A1",
"&. c #679AB8",
"*. c #4598C2",
"=. c #519DC3",
"-. c #5CA1C2",
";. c #5BA3C9",
":. c #66A4C6",
">. c #65ABCC",
",. c #6BABCC",
"<. c #74A8C4",
"1. c #74ADCC",
"2. c #6DB0CF",
"3. c #6AB0D1",
"4. c #75B5D4",
"5. c #7BB6D5",
"6. c #76B8D5",
"7. c #7AB9D6",
"8. c #7DBBD8",
"9. c #818181",
"0. c #868986",
"q. c #898B85",
"w. c #868588",
"e. c #868A8E",
"r. c #8D8D8D",
"t. c #8E918E",
"y. c #90928E",
"u. c #868B94",
"i. c #8B8E94",
"p. c #848E99",
"a. c #8B8F98",
"s. c #8E9195",
"d. c #83909F",
"f. c #8E929A",
"g. c #919191",
"h. c #989596",
"j. c #969896",
"k. c #93959C",
"l. c #999799",
"z. c #99979D",
"x. c #959A9C",
"c. c #9B9B9D",
"v. c #9A999F",
"b. c #9D999F",
"n. c #A09A9F",
"m. c #9EA39F",
"M. c #8D96A0",
"N. c #8898A5",
"B. c #9297A0",
"V. c #949AA3",
"C. c #9D9AA0",
"Z. c #9B9CA3",
"A. c #9E9DA2",
"S. c #949EA9",
"D. c #989FA9",
"F. c #A29FA1",
"G. c #9CA0A2",
"H. c #95A1AC",
"J. c #9CA1AA",
"K. c #8DA3B4",
"L. c #9CA5B1",
"P. c #9AAAB8",
"I. c #A2A2A3",
"U. c #A2A4AD",
"Y. c #A6AAAA",
"T. c #A9ACAD",
"R. c #A4A7B0",
"E. c #A5AAB3",
"W. c #AAADB4",
"Q. c #A4ADBA",
"!. c #AAAFB8",
"~. c #ADB1B6",
"^. c #ADB2BC",
"/. c #B2B5BC",
"(. c #B6B8BD",
"). c #8BACC1",
"_. c #91AEC1",
"`. c #82B1CD",
"'. c #97B4C7",
"]. c #93B3CA",
"[. c #9BBACE",
"{. c #83B9D5",
"}. c #83BDDA",
"|. c #8ABEDA",
" X c #97BED5",
".X c #A4B5C4",
"XX c #AEB5C1",
"oX c #B1B7C1",
"OX c #B3BAC3",
"+X c #BCBDC2",
"@X c #C0BFC4",
"#X c #85C0DC",
"$X c #8DC2DD",
"%X c #94C3DB",
"&X c #9AC4DC",
"*X c #9BC8DF",
"=X c #BCC3CE",
"-X c #A7C5D8",
";X c #BECAD5",
":X c #9BC7E1",
">X c #9CC9E1",
",X c #A3CBE1",
"<X c #B0CCE0",
"1X c #ACD0E5",
"2X c #B7D4E5",
"3X c #C4C4CA",
"4X c #C4C5CB",
"5X c #C8CCD3",
"6X c #D6D5D9",
"7X c #CBD8E5",
"8X c #D7E1EB",
/* pixels */
"i i 9.i y y y y y y y y y y y y y y y y i 9.9.9.r.r.r.r.r.r.r.r.w 0 w w r.r.g.r.9.i 9.i y t t t t t t t t t t t t t t y i U 9.9.",
"i i 9.i y y y y y y y y y y y y y y y y i 9.i 9.r.r.r.r.r.r.r.r.w 0 w w r.g.r.r.9.i 9.i y t t t t t t t t t t t t t t y i U 9.9.",
"i i 9.i y t y y t t y t t y y y y y y y i i i 9.r.r.r.r.r.r.g.r.w 0 0 w r.r.r.r.9.i 9.i y t t t t t t t t t t t t t t y i 9.9.9.",
"i i 9.i y y y y y y y y y y y y y y y y i 9.9.9.r.r.r.r.r.g.g.r.w w w w r.g.g.r.9.i i i y y y y t t t t t t t t y y y y i i i i ",
"i i 9.i i i i i r.r.r.r.r.r.r.r.r.r.r.r.r.r.r.r.i u u u u u u u t t t t r.g.g.g.r.r.r.r.r.r.r.w.w w w w u i i i i i i i y y y y ",
"i i 9.i i i i 9.r.g.g.g.g.g.g.i.i.g.g.g.y.g.g.r.u t t t t t t t t y t y r.r.g.g.g.g.r.r.r.r.g.r.w w 0 w i i i i 9.9.i i y t t t ",
"i i 9.9.i i i 9.r.g.y.y.g.g.i.i.i.g.g.g.g.g.g.r.u t t t y y y y t y y y r.r.g.g.g.r.r.r.r.r.r.r.w w 0 w i i i i i i i i y t t t ",
"i i 9.9.i i i i r.r.r.r.r.r.r.r.r.r.g.g.y.t.t.r.u t t t y y y y y y y y r.r.r.r.r.r.r.r.r.r.r.r.t w w w i 9.9.9.i i i i y t y y ",
"i i 9.i t w w w u i i i i i i u t u F.b.l.h.g.r.0.0.a a i u y u w.r.r.w.u u u i 9.9.9.9.9.9.9.9.i i u i r.r.r.r.9.i i 9.i i i i ",
"i i 9.i w 0 0 0 t y y y y y t t w y A.b.b.b.z.z.C.I.I./.I.s.e.0.t.t.t.r.p u u i 0.9.0.9.a a a 9.9.9.9.9.g.g.g.r.9.i i 9.9.9.9.9.",
"i i 9.9.w 0 0 0 w y y y y y y t w y A.b.b.z.z.z.z.z.U.E.B.f.i.i.s.g.i.s.i.i.s.v.~.I.G.l.g.h.h.h.h.z.r.9.r.r.i.r.9.i i 9.9.9.9.9.",
"i U 9.9.w w w w t y y y y y y y w p I.C.C.v.z.z.z.k.z.Z.z.k.f.k.s.k.f.k.i.i.k.z.T.E.v.v.z.z.b.n.b.F.r.i r.r.r.r.9.i i i 9.9.9.9.",
"i i 9.9.w.w.w.w.i u i i i i i i u r.A.C.v.z.z.z.z.z.z.z.k.f.s.f.f.f.k.f.f.f.k.k.Z.v.z.z.z.z.z.v.v.A.0.y u u u u u u u u i U 9.9.",
"i i 9.9.r.g.g.r.9.i i i i i i i i y.A.C.v.z.z.z.z.z.z.z.z.k.f.f.f.f.f.f.s.i.f.z.z.z.z.z.z.v.v.b.b.A.i y y y t t y y t y i U 9.9.",
"i i 9.9.r.r.r.r.9.i i i i i i i i g.F.C.Z.v.v.z.z.z.z.z.z.k.k.k.k.k.f.f.f.f.k.z.z.z.z.z.z.z.v.C.C.G.i y y y y t y y y y i 9.9.9.",
"i i 9.9.r.r.r.r.9.i i i i i i i i v.A.z.z.z.z.z.k.k.k.k.f.f.k.k.k.k.k.k.k.k.k.k.z.z.z.z.z.z.z.Z.C.v.u y y y y y y y y y i i i i ",
"i i 9.9.r.r.r.r.r.r.r.r.u y y y u T.J.V.B.z.k.k.k.k.f.f.f.f.f.f.f.f.f.f.f.f.f.k.k.z.z.v.v.Z.C.Z.A.v.r.r.r.r.w.w.r.r.r.9.t w w w ",
"i i 9.9.r.r.r.r.r.r.r.r.u t y y 0.+X!.E.E.E.U.U.U.J.A.Z.Z.Z.V.V.V.z.z.k.k.k.f.f.f.k.k.k.k.z.z.v.A.I.y.r.r.r.r.r.r.r.g.r.w w w w ",
"i i 9.9.r.r.r.r.r.r.r.r.u y y y r.OXXXXXoXoXoXoXoXoXoX/./.^.^.^.!.E.E.E.U.J.J.Z.Z.V.V.z.z.z.z.z.Z.T.g.r.r.r.r.r.r.r.g.r.w w w w ",
"i i i i r.r.r.r.r.r.r.r.u y y y 9.E.U.U.U.E.E.E.!.!.^.^.^.XXoXoXoXoXoXOXOXoXoX/.^.^.^.!.E.E.R.U.R./.g.r.r.r.r.r.r.r.r.w.w w w w ",
"u u u y u i i i 9.9.9.9.i i i i 9.I.C.C.Z.v.Z.Z.Z.Z.Z.Z.Z.A.J.J.U.U.R.E.W.!.^.^.^.^.XXoXoXoXoXXXoX(.0.u u u u u y t t y u u u u ",
"t y y y y y y y i i i 9.9.i i i w.G.z.z.k.k.k.f.s.s.s.f.s.s.s.s.f.f.f.k.k.V.Z.Z.A.J.U.U.U.R.E.E.!.T.u y y y t t w w w w i 9.9.9.",
"t t y y y y y y i 9.i 9.9.i i i 9.l.z.z.k.f.f.i.i.i.i.i.i.i.i.i.i.i.i.i.i.i.s.s.k.k.z.z.v.Z.C.A.U.s.y y y y t t w w w w i 9.i i ",
"t y y y y y y y i 9.9.9.9.i i i a s.k.k.k.k.f.s.i.i.u.u.u.i.i.k.k.f.f.i.i.s.s.i.i.i.i.g.k.k.z.z.A.9.y y y y y t w w w w i i i i ",
"w.w.r.r.r.r.r.r.9.9.9.9.9.9.9.9.9.g.k.f.f.k.k.z.f.f.f.i.i.f.f.B.V.V.k.k.k.f.f.f.f.f.s.f.f.f.k.k.c.r.w.r.r.r.r.r.w.w.w.9.w w w w ",
"r.r.r.r.r.r.r.r.9.9.9.9.9.9.9.9.9.v.^.Z.i.f.k.k.k.k.k.f.f.B.M.B.V.J.S.S.S.B.k.k.k.f.f.k.k.f.k.J.G.g.r.t.r.r.r.r.r.g.g.r.w 0 0 w ",
"r.r.r.r.r.r.r.r.9.9.9.9.9.9.9.9.9.I.+X+XZ.i.f.f.k.z.k.B.V.B.f.B.B.J.J.S.V.S.S.B.V.V.B.V.B.B.J.E.G.y.r.r.r.r.r.r.r.r.g.r.w w w w ",
"r.r.r.r.r.r.r.r.9.9.9.9.9.i i i 9.Y.+X3X+XU.k.f.k.V.V.V.V.M.f.M.N.).[.'.H.V.S.B.V.V.V.S.D.D.S.V.c.r.r.r.r.r.r.r.r.r.r.w.w w w w ",
"w.9.9.9.9.9.9.9.9.9.9.i u y y y u Y.@X3X3X+X!.Z.V.S.S.S.S.V.%.' E #.&X2X-XS.S.K._._.P.J.J.J.S.V.r.u u u u u u u 9.9.9.9.i u u u ",
"9.i i i i i i i i i 9.i y y y y y c./.(.@X3X3X+X!.P.'.[.[._.} S A S O.,X2X'.<.5.8.#X%X-X^.!.R.J.9.t t t t t t y i i i i 9.i i i ",
"i i i i i i i i i 9.U i y t y y t 0.~./.E.!.(.3X.X X,X,X>X%X{.X.A A S -.|.,.,.6.7.7.6.:X;X3X^.Z.u t t t t t t y i i i 9.i i i i ",
"i i i i i 9.9.9.9.9.U i y t t t y u I.^.^.U.E.U.$.%X,X,X>X*X:X|.W l z S Q =.6.7.7.7.7.$X2XOXL.z.u y y y y y y y 9.9.9.9.9.9.9.9.",
"i i i i r.r.r.r.r.r.r.r.t w w w w.r.Y././.E.J.V.J <.,X1X,X,X,X>XX.l l g j O.7.5.6.7.7.}.-XQ.J.v.r.r.r.r.r.r.r.r.r.r.r.r.r.r.r.r.",
"i i i 9.r.i.r.r.r.r.r.r.w w w w r.g.T.6X3X!.U.V.& 3 1.,X1X1X1X:XW h h g f | 4.4.6.7.8.}.%XL.J.v.g.g.g.g.g.g.g.g.g.g.g.r.g.g.g.g.",
"i i i 9.r.r.r.r.r.r.r.r.w 0 w w r.r.m.(.~.V.s.i.7 + M &.,.4.4.;.z z h g b ` -.4.7.7.6.7.).S.J.j.r.r.r.r.r.r.r.r.r.r.r.r.g.g.r.r.",
"i i i 9.r.r.r.r.r.r.r.r.t w w w w.r.g.s.f.i.e.e.( 8 L } R Q *.=.:.,.o.' _ $.[ =.>.3.>.&.N.B.S.g.r.r.r.r.r.r.r.r.r.r.r.r.r.r.r.r.",
"i i i i u u u u y y y y y y y y u 0.f.s.i.u.e.r.i.f.) V S Q *.>.5.|.}.@.&.].`.>.o.} $.d.M.f.x.u u u u u u u u u r.r.r.r.w.9.9.9.",
"i i i i y t y y t t t t y y y y u s.f.s.i.u.i.i.i.f.J c E ! | #.1.5.;.>.{.$X$X>X&XK.f.B.B.B.g.y t t t t y y t u r.r.r.r.9.i i i ",
"i i i i y y y y t t t t t y y y 0.s.i.i.i.i.i.i.f.I v T o.S F | ,.O.X.,.}.}.}.}.$X-XS.B.B.B.s.y t t t t y y t u r.r.r.r.9.i i i ",
"i i i i y y y y y y y y y y y i g.g.s.s.i.i.i.i._ ^ +.1.4.R S | @.S | 2.8.}.}.}.}.>XP.S.M.S.r.y y y y y y y y u r.r.r.r.9.i i i ",
"i i i i i u i i r.r.r.r.u y y r.z.g.g.k.a.p.u.( H C [ -.{.}.! ! E f E 2.8.8.}.$X%X:X.XS.B.B.g.r.r.r.r.w.i i i i 9.9.9.9.i i i i ",
"i i i i i i i 9.r.r.r.r.u y p l.l.z.z.p.~ P H < 2 3 x V +.5.3.Q N d F >.8.{.}.%X%X&XP.S.B.x.g.r.r.r.g.r.i i i i i i i i i i i i ",
"i i i i i i i U r.r.r.r.y y r.b.l.v.p.P Z b , = 1 2 3 x c +.1.F f ; c  .4.}.$X%X%X].H.B.f.Z.g.r.r.r.r.r.9.i i i i i 9.U i i i i ",
"i i i i i i i 9.r.r.r.r.u i l.b.b.v.) Z n 2 $ = - : : 2 x Z #.m ; H ) P +.,.{.%X].P.J.M.f.x.r.r.r.r.r.r.9.9.9.9.9.9.9.9.i i i i ",
"w w w t i 9.9.9.9.9.9.9.i r.F.v.v.z.K Z c * . $ - - - : 2 c [ m s K f._ K C #.].XX^.L.B.f.s.9.9.9.9.9.w.r.r.r.r.r.r.r.w.w w w w ",
"w w w w u i U U i i i i a j.F.v.v.g.8 V v *   X = - - - : c F N k m ^ P C T :.<X7X=X!.B.B.t.p p i i i 9.r.g.g.g.g.g.g.r.w 0 0 0 ",
"w w 0 w u i i i i p i i 9.c.F.I.F.h.7 v c - .   X $ = = - m E E Y N B T ] {  .`.7X7XOXS.B.r.9.9.9.9.9.w.r.g.g.g.g.g.g.w.w w w w ",
"w w 0 w u i i i i i i i q.I.I.I.I.F.q # 2 2 $ .   % @ $ > Y ......B C ] [ [ { &.-X8X=XJ.Z.0.i i i i i 9.r.r.r.r.r.r.r.w.w w w w ",
"u u u u y u y y y y y y q.I.I.F.F.F.h.6 o + # O % w.9 $ n E ..o.[ > C ` ` ] [ +.`.7X;XR.x.u y y y y y y u u u u u u u u i i i i ",
"9.9.9.i y y y t t t t t u a 9.q.r.y.h.g.y 6 6 e r.l.r.& , n Z P , $ n G T ` ] { :.-X5X/.x.y t t t t t t t t t t t t t y i i i i ",
"i i 9.i y y y y y y y y t t t t t y y u p a q.r.g.h.l.U % o o @ 5 r 4 Z T ] { { #._.3X5XG.t t t t y t t t t t t y y y y i i i i ",
"i i 9.i u y y y y y y y y y y y y y y y y y y u u i a 0.p t r / i.g.9 < b V Z Z ^ N.E.+Xl.y t t y y y y y y y y u u y u i 9.9.9.",
"i i 9.9.r.r.r.r.r.r.r.r.r.r.r.r.r.r.r.r.r.r.r.r.9.i i i y u i 0.r.r.s.r 8 4 J L u.z.k.V.0.y y y i i i i i i i i r.r.r.r.r.r.r.r.",
"i i 9.9.r.g.i.r.r.r.r.r.r.g.g.g.g.g.g.g.g.g.g.r.9.i i i y t t t y u u 9.r.s.l.v.Z.z.k.Z./ t y y i i i i i i i 9.r.r.r.g.g.g.g.g.",
"i i 9.i r.g.r.r.r.r.r.r.r.r.r.r.r.r.r.r.r.r.r.r.9.i i i y t t t y y y y y u 0.t.l.A.Z.J./ t t y i 9.i i i i i 9.r.r.r.r.g.g.g.g.",
"i i 9.9.r.r.r.r.r.r.r.r.r.r.r.r.r.r.r.r.r.r.r.r.i i i u y t t t y y y y y y y y t p r.l.i y y u i 9.i i i i i i r.r.r.r.r.r.r.r.",
"i i 9.9.9.9.9.9.9.9.9.9.u y u u u u u u u u u u y y y y y y t y i i i i i i i i w.r.r.t.r.r.r.r.9.i i i u y y y u u u u 9.9.9.9.",
"i i 9.9.9.9.i i i i i i y t t t y y y y y y t t y y y y y y t y i i i i i i i 9.r.r.r.r.r.r.r.r.9.i i i y y y t y y y y a 9.9.9.",
"i i 9.9.9.9.i i i i i i y t t t t t y y y y y y y y y y y y y y i i i i 9.9.U 9.r.r.r.r.r.r.r.r.9.i i i y y y y y y y y i 9.9.9.",
"i i i i i i i i i i i i y t t t t t y t y y y y u u u u y y y y i i i i 9.9.U 9.r.r.r.r.r.r.r.r.9.i i u y y y y y y y u i 9.9.9.",
"y y y y y y y t y y t y t t t t w w w w 9.r.r.r.r.r.r.r.i i i i i i i a 9.a i i 9.9.9.9.u u u y y y y y y y y y i i i i i i i a ",
"y t t y t t t t y y t y t t t t w 0 w w w.g.r.r.r.g.g.r.9.i i i i i i 9.a a i i i i i i u y y t t t t y y y y y i i i i i U i i ",
"t t t y t t t t y y y y t t t t w 0 0 w w.r.r.r.r.r.g.r.9.i i i i U U 9.p i i i i i i i u y y t t y y y y y y y i 9.i i i i U U ",
"y y y y t t t t y y y y t t t t w 0 0 w w.r.r.r.r.r.g.r.9.i i i i i U 9.i i i i i i i i u y y y y y y y y y y y i 9.i i i i U U "
};
