/* XPM */
static char *_c57c547b47041b7f666dadcfeea40e13uu9EqcFthO3Gxxa[] = {
/* columns rows colors chars-per-pixel */
"64 64 163 2 ",
"   c #070300",
".  c #060100",
"X  c #010000",
"o  c #090502",
"O  c #140B05",
"+  c #110904",
"@  c #8B8887",
"#  c #26150A",
"$  c #100603",
"%  c #181109",
"&  c #0B0704",
"*  c #311C0D",
"=  c #A9A5A2",
"-  c #E2DDD6",
";  c #E8E3DC",
":  c #201B0F",
">  c #A09D9E",
",  c #160F09",
"<  c #1D170E",
"1  c #452E20",
"2  c #0D0201",
"3  c #29190E",
"4  c #231108",
"5  c #8F8B89",
"6  c #130E09",
"7  c #E3DFD7",
"8  c #3D2115",
"9  c #312015",
"0  c #949292",
"q  c #787374",
"w  c #2E170C",
"e  c #AE7B65",
"r  c #5D3F30",
"t  c #6C6B6C",
"y  c #898787",
"u  c #A3A1A4",
"i  c #A56F59",
"p  c #372010",
"a  c #794939",
"s  c #817D7C",
"d  c #D3C8BE",
"f  c #3D2518",
"g  c #B0AEA9",
"h  c #1E0C04",
"j  c #CFC5B9",
"k  c #D6CCC3",
"l  c #9D6854",
"z  c #B37F67",
"x  c #96634D",
"c  c #35241A",
"v  c #371C10",
"b  c #E0DBD2",
"n  c #44271A",
"m  c white",
"M  c #3C2A1F",
"N  c #DBD6CD",
"B  c #553B2C",
"V  c #4C3022",
"C  c #A06C55",
"Z  c #825540",
"A  c #747073",
"S  c #7E7A78",
"D  c #868282",
"F  c #8F8E8E",
"G  c #989696",
"H  c #4B2A1C",
"J  c #2B1E14",
"K  c #DFD8D0",
"L  c #EAE6E0",
"P  c #D1CEC6",
"I  c #838080",
"U  c #905E4A",
"Y  c #EFECE7",
"T  c #B5B2AE",
"R  c #5C3527",
"E  c #9B9999",
"W  c #533628",
"Q  c #613B2A",
"!  c #805C46",
"~  c #C8BDB2",
"^  c #8A6851",
"/  c #DBD4CA",
"(  c #DAD9D1",
")  c #CAC2B7",
"_  c #878584",
"`  c #D4D2CB",
"'  c #804F3F",
"]  c #F5F2F0",
"[  c #624432",
"{  c #532E21",
"}  c #AF7760",
"|  c #8B5A46",
" . c #948E8B",
".. c #BE8A73",
"X. c #6F4B37",
"o. c #C6947D",
"O. c #775142",
"+. c #B7836B",
"@. c #BB8670",
"#. c #76563F",
"$. c #4A3427",
"%. c #E8E1DA",
"&. c #AA7260",
"*. c #7A7677",
"=. c #563325",
"-. c #966752",
";. c #ABAAA7",
":. c #B9B7B0",
">. c #D9D0C8",
",. c #A8765E",
"<. c #724534",
"1. c #F2EFEB",
"2. c #F6F5F3",
"3. c #231E14",
"4. c #B0A8A0",
"5. c #716E71",
"6. c #674937",
"7. c #906E55",
"8. c #C7B9AC",
"9. c #9D6050",
"0. c #ECE9E4",
"q. c #BDAFA3",
"w. c #8A5543",
"e. c #FBFBF9",
"r. c DimGray",
"t. c #A1725A",
"y. c #3B312C",
"u. c #BBAA9C",
"i. c #C3B4A7",
"p. c #975A4A",
"a. c #95735B",
"s. c #A6A19C",
"d. c #A69787",
"f. c #4D453D",
"g. c #ADA090",
"h. c #CCC8C2",
"j. c #6B3F30",
"k. c #C28E78",
"l. c #A76858",
"z. c #E1E2DE",
"x. c #59514C",
"c. c #C99A84",
"v. c #85624D",
"b. c #2B2320",
"n. c #665743",
"m. c #724F3D",
"M. c #9E7966",
"N. c #725D4C",
"B. c #8B4C3D",
"V. c #A8846C",
"C. c #423C3B",
"Z. c #8B786A",
"A. c #776B53",
"S. c #968579",
"D. c #B6927B",
"F. c #818286",
"G. c #686564",
"H. c #635D5A",
"J. c #4E4B4E",
"K. c #736C6B",
"L. c #9D8C7D",
"P. c #C9A590",
"I. c #7F7C82",
/* pixels */
"G.G.r.r.r.r.r.r.t t t t 5.5.A A q q *.I._ F.q G.x.C.y.b.: < < 3.b.b.C.f.H.q D @ _ I I s s s s s s s s s s I I I I D _ _ @ @ @ @ ",
"r.r.r.r.r.t t t t t t 5.A A q q *.s F.A J.b.6   X X X . . . . . . . . 2 $ # y.x.*.@ D D I I I I I I I I I D D D _ _ @ @ _ @ @ 5 ",
"r.t t t t t t t 5.5.A A A *.*.S _ 5.y.& X X X   o & & & o     o   o o & & 6 4 # 9 x.@ y _ _ D D D D D D D _ _ y y y @ 5 @ @ 5 5 ",
"t t t t t t t 5.5.A q q *.*.s F.J.& X . o     o o o o o o           o & & 6 < : J # f.5 _ y y y _ _ _ _ _ y y @ @ @ @ @ 5 5 5  .",
"t t t t K.5.5.A A q q *.S s F.y.X . o         o o o o o o o o       o & & O % : 3.J 3 G.0 y @ @ @ y y y y y @ @ 5 5 5 5  . . . .",
"K.5.5.5.5.A A q q *.S S S _ y.X o   .         o o o o o o o o         o & O % < J J J y.5 @ @ @ @ @ @ @ y @ 5 5 5 5 5  . . .0 0 ",
"5.A A A q q q q *.S S S y x.X &   .             o o o o o o o o         & + , < : J 9 c S 0 5 5 5 @ @ @ @ @ 5 5 5  . . .0 0 0 0 ",
"5.A A A q q q *.S S s I F.< X   . . . .       o o o o o o o o o       o o 6 , < 3 9 J 9 K.G F F F F 5 5 5 5 5  .0 0 0 0 0 G G G ",
"A q A q q q *.S S s I @ t .   . . . .     o o o o o & o o o o o       o & O % < J J 9 9 x.E 0 0 0 0 0 0 0 0 0 0 0 G G G G G G G ",
"q q q q q *.S s s I I F H.X   . . .     o o o o & & + + + O + + & & & + & O % 4 3 J c c f.G E E E E E G G G E G E E E E E E E E ",
"q q q *.S S S I I D D 0 x.X o .       . o & + 6 , , , , % % , , , O O 6 % < 3.J c M c 9 1 F u > E > > > > > > > > E > > > > > > ",
"*.*.S S s s s I _ y y G x.X   .     o + 6 , % , , , , , , % % , , O O 6 < : 3.b.M y.y.y.M @ ;.u u u u u > u > > > > > > > > s.> ",
"S S S S s I D _ y @ 5 E x.X o . o + 6 , % % % , , , , , , , , , , 6 O 6 % : 3.b.M y.1 B [ H.u u u u u u u u u u u u u u s.u s.s.",
"s s s I I D _ @ 5 F F > J.X & o $ 6 , , % % % % % % , , % % % % , , 6 , < 3.J b.M y.1 $.N.r > :.T T T g ;.u u = = = u = = s.s.= ",
"s s I D _ y @ F F 0 0 > f.X & o $ 6 % % % % % % % % , , , 6 O 6 + + 6 O 6 O O + + O , % < J y.f.x.G.s  .= T T ;.= = = = = = = 4.",
"I _ _ y @ 5 F F 0 G E g f.X & & & O 6 6 6 + + + + & & & & o     o o o o     o       o o     . . X . $ h b.f.S g g ` L ` 4.= 4.= ",
"_ @ @ @ F F 0 > u > y r.3.  & & & o o & o o o o                                     o o o o & & & & & $ 2 2 2 C.:.` 0.e.P 4.;.;.",
"@ @ 5 F G > 0 A J.b.& X . o o o       o                                         o o     o o o o o & & + + O 6 . D ] h.- - T g g ",
"@ F F E y J.< X X X . o                     o o o o       o o                       o o o o o o 2 $ & + + O O 2 N.m Y N h.:.T g ",
"F F E r.+ X X o o       .           o o o o   . X X X X X . . . . 2 2 2 2 2 2 o 2     o o o o o 2 & $ + + O O 2 H.7 N h.:.T T T ",
"F G F.o X o   .   .     .             X X . 2 h w 8 H R =.{ =.R =.{ Q { =.W H 8 v w 4 O $ o o o $ $ $ + $ O O $ E ` - Y ] ` T :.",
"F > H.X o   . . . . . . . . . . X . $ # { <.! t.e z z ..z } e z e l &.x x x Z O.Q r W p w O   o $ $ $ + O O . G.7 e.m m m m 1.P ",
"F T q X &     . . . . . . .   . h W ! i z k.o.k.o.@.@.+.,.,.C &.e C i C x | ' <.Q r { 1 8 % . o 2 $ O 6 2 $ K.h.( Y b L e.m m e.",
"G ~ = .   o . . . . . . . X X v Z ,.z z z ..@.+.@...@.z i &.i i } } z } i l w.a X.[ V 1 B 3.  $ $ O 2 . C.g 1.( ` N >.k ; m 2.Y ",
"s.4.) A X . o . . . . . . X * Z C ,.e e +.z +.@.....k.o.z &.x U x i ..e l i a X.m.[ W 1 v.x.X $ . . y.E e.m z.- b b >.d >.K k k ",
"> s.4.k _ & X o   . . . X o m.x l e ,.z +.+.@.+.+...z @.@.+.&.x p.i o.z l &.a O.' 6.r n v.x.X + C.;.m m m m 7 P b 7 b / N K >.N ",
"> s.= T h.T C.X X .     . & O.x -.,.,.e e z @.k.o.c.o...o.@.&.l U w...e &.e ! [ [ r $.8 7.Z.+ K.z.Y 1.2.2.e.7 ( / N %.L Y 1.7 b ",
";.g ;.;.T b %.0 C.+ X X X X X.l -.t.,.e C i C C M.t.M.M.a.7.U ' x a U Z ! B v # 4 # * c [ S.c T ` h.P ` ( ` ` b 0.2.] ] 2.] Y 0.",
"= = = ;.:.~ ) k ` :.q r X.O 9 m.x ,.} t.-.V.^ n p p p * 9 M p H ,.' Q n f * f V H H p * 1 W w s.P ) ) ) h.z.2.2.] Y 0.1.2.m m m ",
"s.s.= = ;.;.g g :.h.>.e } &.R B =.X.-.-.! 7.[ m.! 6.W H n n B O.[ 8 w 4 r W W m.X.r W p n ^ M G ] z.z.0.e.m 2.; 0.2.2.2.1.e.m e.",
"s.= = = ;.;.;.g T :.T l l.k.o.t.| j.n.6.Q Q X.O.$.c c 8 H <.t.O.a Z { 4 4 H M M f w 8 V * #.! / m m m 2.2.0.7 7 ; 2.2.e.] 2.e.e.",
"4.= = = = ;.;.g T :.:.l.l.@.k.,.U ,.,.O.=.H { Q [ W { =.R ,.-.j.&.C a 3 3 V O.Z Q V f n 8 a.S.1.m e.2.L 7 z.7 1.Y 7 ; ] ] L L 1.",
"8.4.= = = ;.g g T T ) @.i c.@.i x t.e ,.e Z ' +.e C ' <.m.e r R e i ' * 4 4 V ! m.r W Q M.8.Z.2.m 1.b K L - >.L ] >.k ] m ] 0.Y ",
"4.= = = ;.;.g T ~ h.` D.l.} a x x C +.+...,.x o.D.z t.t.C +.O.' } l a 8 3 4 w ! U [ Q M.P.c.O.0.e.Y >.j k ) 8.~ k >./ 1.e.] Y ] ",
"q.4.4.T g g g T 8.d K ~ } p.j.t.U l +.@.@.l x c.c.o.@.+.o.e j.9.i l <.n # * f R U a a.D.+.M.M.d b K >.d d ) ~ i.8.8.) j d ~ ) k ",
"k ) ) d j ) ~ ) 8.8.k K ..B.x z | l } k.k.t.C P.c...@.o.k.a w.l.l l.' H w v f f <.U t.x ' V.8.L L L ] Y L 1.0.7 ; ; b 7 ; / j j ",
"8.i.~ ) j k k k k k >./ P.B.w...| U &.+.o.z U V.z C -.| a B.l.9.9.l.p.R 8 f r O.Q Q j.<.<.V.; L Y Y Y 7 %.1.0.L 1.] ] ] 2.] L ( ",
"~ i.8.d j j j d 7 ; L ; j &.w.x U Z C e ..o...C | ' ' w.i l.p.p.9.p.p.a H w { ^ t.| ' m.R e b K ; 0.1.- N - b K %.; ; 7 %.L 0.%.",
"d 8.i.d k k >.d N L Y 0.N D.&.p.| Z x ,.+...o.c.c.c.o.z 9.9.l.9.&.&.B.B.=.M 4 v a -.Z O.{ o.%.P ` - 7 ` k P P P >.>./ / N N N / ",
"j j d d >.L K d ) k K K N i.i e x Z U i e z ..k.o.c.@.a w.9.w.B.9.l.B.j.v 1 w h H U -.Z R u.7 ` P P P P P P P P P h.P ` N N N / ",
"d d j k d k j i.i.) ) 8.>./ &.} } Z U i } } +...o.o.p.<.k.C R a w.a R v 2 h # 4 H a Z Z <.~ ( ` ` P P P ` N N ( b - b / / N ( b ",
"j ~ i.j ) i.~ ~ ) d k d k K 8.e C Z U C } i e ..k.z B.e z U j.a p.<.{ h M 1 9 # Q <.j.| -.K L 7 N ` N N ( - 7 - %.0.L 7 - %.; L ",
"i.u.g.u.u.u.u.q.8.) k k k K z.N ) ^ | l &.} } @.+.i U | j.j.v w n 8 Q H W r $.w v R X.Z e %.Y 0.b N N N / / / / K - - 7 7 %.%.7 ",
"g.d.d.d.d.g.g.u.8.j d d >.b b b z.L.w.x i z t.} i | { 8 w v v h # h w v w c 9 c 1 n Q <...%.7 b - b ; 0.K / / / N K K b - - - 7 ",
"i.q.u.u.q.u.u.u.~ d ) j d d / / / d.' -.-.e x x C n h h h # # 4 4 # p # 4 3 # 3 1 B [ Q c.L 7 7 L - ; 1.L - - b - - 7 7 %.%.; 0.",
"4.u.q.8.~ i.q.i.~ j j >.K d j ) h.g.' -.l z U x O.h % h v n 8 w w 8 H f # 3 4 # # f v.R P.Y 7 7 - >.k b ; - b - 7 ; 7 - %.7 - ; ",
"g.g.4.q.q.i.q.~ j j j d h.) 8.~ h.Z.a | x z l C R h 4 w n { Q R H H { n p v w * 8 f v.=.q.Y 7 b N / N N K b K K b %.7 b %.7 - %.",
"g.g.4.q.q.q.u.q.i.q.:.i.T g :.g C.% w.w.U e e C R h # V U C ,.,.l U w.' <.V f f n V #.W k L ( ` P P ` / / N K - %.%.%.%.%.; ; L ",
"5  . .d.g.g.= 4.4.4.g g 4.:. .: X < U Z w.l ,.i O.4 # j.| l x | <.Q R R { n f 8 * V m.#.1.7 7 ( N ( b - %.%.; %.%.L %.b K N N / ",
"5 L. .G s.s.= 4.g g g ;.:.s & . 6 + U U ' | C l Q h 4 =.a Z R { H v w f p v f 8 p n [ Z.d.L.g.L.S.Z.Z.7.A.N.N.N.n.N.n.n.6.N.N.#.",
"S.S.S.L.S.L.d.d.d.d.d.d.H.. X 6 6 o Z i x X.x x 8 h 3 n R R 8 8 v w 4 3 w w * 9 9 1 X.=.v f p p v * * * * * w * w p 1 1 f H r r ",
"7.^ ^ 7.^ 7.7.a.a.a.M.r .     , % + ' 9.&.x Z i n h J 9 * p { n v v 4 w w p 9 # 3 f O.r W B r [ r B r [ 6.m.6.#.#.v.^ #.^ ^ ^ ! ",
"v.v.! Z 6.X.! X.m.#.W o $ . o % < & X.l l.} C x 1 4 # 3 # n { 8 H H p p * 9 9 4 # n 6.1 #.a.7.^ a.a.7.7.^ ! #.7.7.7.Z #.^ v.#.X.",
"! 7.! <.[ r O.X.m.f 2 & o X & % < + 1 C i i } l 8 4 # # p V 8 v W n v 9 3 # 3 O O V $.& B v.X.#.^ ^ ^ 7.! #.X.Z v.^ ! 7.7.#.! ! ",
"[ r B $.W 1 1 W 1 O $ & . X 6 % < < + Z &.C C &.j.4 # J c M * * f f * 3 # 4 # , 4 W 6 X J m.V W #.[ Q #.^ Q r ! ! 6.6.a.V.a.a.V.",
"V * w $.B f O # O + $ & X X , < < : % w -.C l l -.* h 3 9 c 9 w 3 3 3 h 4 4 4 + 6.x.X . O 6.B 9 1 r [ ! M.v.X.#.B 1 $.! V.a.! X.",
"X.V v r B f % % O + $ & X X % < < : : & v l -.l i 6.4 J # 9 c # # 3 # h h h * 1 Z.n.X X 6 $.r * #.D.V.D.V.[ * M * 3 f [ ! 6.Q { ",
"B p 3 9 * # % , O $ $ o X X % < < : : : X n l x l -.' B p 3 3 # 4 # # 4 3 c c B A.n.X X $ $.r c f M.D.7.W # # 3 3 # p 1 B [ B W ",
"1 * # % O , % , O $ & o X X , < : : 3.3.% X V x w.w.U U a R 9 J 3 # 4 4 9 < + f.A.f.X X . 1 6.f 9 f ! B f p p 8 * p v v n r m.^ ",
"h + $ 2 O O , O O $ + o X X 6 : : : 3.: 3.+ X H U Z ' w.w.' H 1 * # 4 4 O . 9 n.A.3.X . . M 6.f c 3 * 1 B V f $.p p n p f W V [ ",
"$ $ $ + O + O O , $ + o X X & < < : : : 3.< 2 . f | U a ' a =.V * 8 f f O % f.A.n.  X X $ M r M 9 3 J 9 M $.B [ V f $.8 f 1 V 8 ",
"+ + $ + O + O , , + $ $ X X X < : : : : : 3.O 2 X 8 w.' ' Q H n f V V v h M n.A.$.X X X + M B M c 9 J 3 * c 1 $.B B V * # * 1 1 ",
"+ + $ + + + O , O + $ $ . X X + : : : : : 3.< O o X v X.a =.V H =.R 1 # 3 B n.A.< X X X O c $.M 9 c J 9 J J 3 M $.$.B W M w p 1 ",
"+ & $ + + + O , 6 O + O o X X . < < : : : : 3.< % < + 8 r W W R a a =.# b.f.N.x.. X X X + c $.1 * c c 3 J 9 # w c M y.M r r 1 f "
};
